<?xml version="1.0" encoding="UTF-8" standalone="no"?>
<!DOCTYPE svg PUBLIC "-//W3C//DTD SVG 1.1//EN" "http://www.w3.org/Graphics/SVG/1.1/DTD/svg11.dtd">
<svg version="1.1" xmlns="http://www.w3.org/2000/svg" xmlns:xlink="http://www.w3.org/1999/xlink" preserveAspectRatio="xMidYMid meet" viewBox="0 0 1000 700" width="1000" height="700"><defs><path d="M555.28 59.09C555.27 59.09 554.6 59.5 553.25 60.31C553.25 60.31 427.15 125.43 427.15 125.43C397.72 138.2 440.19 119.76 427.15 125.43C332.82 166.38 226.23 168.9 130.07 132.46C115.59 126.98 79.4 113.27 21.5 91.33" id="a1iIvCHVUQ"></path><path d="M448.1 61.68C448.38 61.68 445.1 59.09 445.1 59.09C465.81 72.4 552.33 119.39 573.17 128.44C573.55 128.6 574.5 129.01 576.03 129.66C670.68 169.82 777.28 171.33 873.02 133.88C886.85 128.47 921.42 114.95 976.72 93.32" id="afJrOBdjj"></path><path d="M976.72 6.36C976.44 6.36 831.09 60.09 499.86 60.09C361.26 60.09 202.55 42.18 23.74 6.36" id="b1nVb4Ajxe"></path><path d="M164.2 54.57L176.81 35.93L157.96 32.94L139.11 29.96L145.35 51.59L151.59 73.22L164.2 54.57Z" id="fEQtqttiB"></path><path d="M213.92 61.7L226.15 42.8L207.25 40.2L188.35 37.59L195.01 59.09L201.68 80.6L213.92 61.7Z" id="f50eIaq3ea"></path><path d="M263.14 67.9L275.03 48.79L256.09 46.52L237.14 44.25L244.19 65.63L251.24 87.01L263.14 67.9Z" id="b2a744A8Xe"></path><path d="M314.15 73.39L325.59 54L306.6 52.18L287.61 50.36L295.15 71.57L302.7 92.78L314.15 73.39Z" id="a2XJZuGNJ"></path><path d="M364.88 77.74L375.98 58.16L356.96 56.67L337.94 55.18L345.86 76.25L353.78 97.33L364.88 77.74Z" id="b2MqqqjvSp"></path><path d="M617.3 82.03L626.66 60.02L606.4 60.74L586.14 61.46L597.04 82.75L607.94 104.04L617.3 82.03Z" id="g2a0SYC4KS"></path><path d="M671.46 79.14L680.15 56.86L659.92 58.2L639.7 59.53L651.23 80.48L662.78 101.43L671.46 79.14Z" id="ddqeMEeBk"></path><path d="M726.12 74.64L734.34 52.18L714.14 53.94L693.94 55.7L705.92 76.4L717.9 97.1L726.12 74.64Z" id="cDJZ0Buik"></path><path d="M779.11 69.03L786.88 46.41L766.72 48.57L746.56 50.74L758.96 71.2L771.35 91.65L779.11 69.03Z" id="a1t2oJlZzj"></path><path d="M832.16 62.18L839.31 39.36L819.22 42.07L799.13 44.78L812.07 64.89L825.01 85.01L832.16 62.18Z" id="b2H4XqhDeD"></path><path d="M884.7 53.71L891 30.64L871.02 34.09L851.05 37.54L864.72 57.16L878.4 76.78L884.7 53.71Z" id="gCCW4CAg"></path><path d="M936.08 43.67L941.39 20.35L921.58 24.65L901.77 28.94L916.27 47.97L930.77 66.99L936.08 43.67Z" id="d1jl83kp6Z"></path><path d="M148.96 164.01L165.34 146.59L146.08 140.27L126.82 133.95L129.69 157.69L132.57 181.44L148.96 164.01Z" id="dJqm6HRPb"></path><path d="M207.64 177.16L221.26 157.5L201.28 154.1L181.29 150.7L187.65 173.76L194.01 196.81L207.64 177.16Z" id="akriZPxSm"></path><path d="M272.33 181.74L282.73 160.2L262.45 159.96L242.18 159.72L252.06 181.5L261.94 203.28L272.33 181.74Z" id="a1KCIbFjB"></path><path d="M334.04 176.79L341.23 153.98L321.14 156.64L301.04 159.31L313.94 179.45L326.84 199.59L334.04 176.79Z" id="b10mJQdBq9"></path><path d="M683.32 182.66L696.22 162.52L676.12 159.86L656.03 157.19L663.22 180L670.42 202.81L683.32 182.66Z" id="a1PZOxYfQY"></path><path d="M455.41 137.87L455.19 113.95L436.91 122.71L418.62 131.47L437.12 146.63L455.62 161.78L455.41 137.87Z" id="a9uQTX4qq"></path><path d="M839.04 170.25L843.63 146.77L823.96 151.68L804.29 156.59L819.37 175.16L834.46 193.72L839.04 170.25Z" id="a21hOCllBo"></path><path d="M568.8 152.92L587.06 137.48L568.64 129.01L550.23 120.54L550.38 144.45L550.54 168.37L568.8 152.92Z" id="b2zYvglobQ"></path><path d="M624.28 172.13L640.03 154.13L620.55 148.5L601.08 142.88L604.8 166.5L608.52 190.13L624.28 172.13Z" id="aqvyTyJJe"></path><path d="M399.43 161.54L402.87 137.87L383.46 143.73L364.06 149.59L380.02 167.4L395.99 185.21L399.43 161.54Z" id="f1JKwoH0sh"></path><path d="M780.93 181.92L788.86 159.35L768.69 161.37L748.52 163.39L760.76 183.93L773 204.48L780.93 181.92Z" id="a2IQD66Whb"></path><path d="M895.97 151.29L898.11 127.47L879.05 134.38L860 141.29L876.91 158.2L893.82 175.11L895.97 151.29Z" id="cnopB7fwS"></path><path d="M17.22 85.14L17.22 12.41" id="c370FviGme"></path><path d="M21.5 135.19L21.5 62.46" id="d1X115mB2l"></path><path d="M18.13 193.08L18.13 120.35" id="aGr6TcjS9"></path><path d="M976.72 81.12L976.72 8.39" id="aewvHQzcY"></path><path d="M981.64 132.23L981.64 59.5" id="a3sPdpz3V"></path><path d="M977.23 176.07L977.23 103.35" id="b8OyoBfZd"></path><path d="M13.29 1.81L25.23 1.81L25.23 446.19L13.29 446.19L13.29 1.81Z" id="c1JISvqcDy"></path><path d="M971.26 1.81L983.2 1.81L983.2 446.19L971.26 446.19L971.26 1.81Z" id="c414YtL9Uz"></path><path d="M979.05 448.48C979.64 446.42 980.01 445.13 980.16 444.61C981.84 438.77 986.04 433.98 991.61 431.54C991.84 431.43 992.43 431.18 993.37 430.76C992.61 431.68 992.14 432.25 991.95 432.48C988.7 436.38 986.76 441.2 986.38 446.26C986.35 446.56 986.3 447.3 986.21 448.48L979.05 448.48Z" id="c5QIgxx476"></path><path d="M975.41 448.48C974.82 446.42 974.45 445.13 974.3 444.61C972.62 438.77 968.42 433.98 962.85 431.54C962.62 431.43 962.03 431.18 961.09 430.76C961.85 431.68 962.32 432.25 962.51 432.48C965.76 436.38 967.7 441.2 968.08 446.26C968.11 446.56 968.16 447.3 968.25 448.48L975.41 448.48Z" id="k22lVhwL3m"></path><path d="M17.18 447.98C16.59 445.92 16.21 444.62 16.07 444.11C14.38 438.26 10.19 433.47 4.62 431.03C4.39 430.93 3.8 430.67 2.86 430.26C3.62 431.18 4.09 431.75 4.28 431.97C7.52 435.88 9.47 440.7 9.85 445.76C9.88 446.06 9.93 446.8 10.02 447.98L17.18 447.98Z" id="b2R6FNawik"></path><path d="M20.43 447.98C19.75 445.15 19.32 443.37 19.15 442.67C17.97 437.72 14.7 433.53 10.2 431.16C9.97 431.04 9.4 430.74 8.49 430.26C9.36 431.52 9.91 432.31 10.13 432.63C12.55 436.13 13.97 440.22 14.24 444.47C14.27 444.94 14.34 446.11 14.46 447.98L20.43 447.98Z" id="ec9eyJDJC"></path><path d="M17.57 447.98C18.25 445.15 18.67 443.37 18.84 442.67C20.03 437.72 23.29 433.53 27.79 431.16C28.02 431.04 28.59 430.74 29.51 430.26C28.64 431.52 28.09 432.31 27.87 432.63C25.45 436.13 24.03 440.22 23.76 444.47C23.73 444.94 23.66 446.11 23.54 447.98L17.57 447.98Z" id="c13K3DE7Ay"></path><path d="M20.82 447.98C21.41 445.92 21.78 444.62 21.93 444.11C23.61 438.26 27.81 433.47 33.37 431.03C33.61 430.93 34.2 430.67 35.14 430.26C34.38 431.18 33.91 431.75 33.72 431.97C30.47 435.88 28.53 440.7 28.14 445.76C28.12 446.06 28.07 446.8 27.98 447.98L20.82 447.98Z" id="k5F7eNF0gW"></path><path d="M20.34 447.98C20.9 446.02 21.25 444.8 21.39 444.31C22.8 439.36 27.64 436.22 32.73 436.92C33.43 437.02 35.19 437.26 38 437.65C36.39 437.79 35.38 437.89 34.98 437.92C30.79 438.31 27.49 441.67 27.18 445.86C27.16 446.14 27.11 446.85 27.02 447.98L20.34 447.98Z" id="c6ks8Ubnfu"></path><path d="M978.66 448.48C977.98 445.65 977.55 443.88 977.38 443.17C976.2 438.22 972.94 434.03 968.43 431.67C968.21 431.55 967.63 431.25 966.72 430.76C967.59 432.03 968.14 432.81 968.36 433.13C970.78 436.63 972.2 440.73 972.47 444.97C972.5 445.44 972.57 446.61 972.69 448.48L978.66 448.48Z" id="a44okhJkDv"></path><path d="M17.66 447.98C17.1 446.02 16.75 444.8 16.61 444.31C15.19 439.36 10.36 436.22 5.27 436.92C4.57 437.02 2.81 437.26 0 437.65C1.61 437.79 2.62 437.89 3.02 437.92C7.21 438.31 10.5 441.67 10.82 445.86C10.84 446.14 10.89 446.85 10.98 447.98L17.66 447.98Z" id="f3o0uwzjnA"></path><path d="M975.8 448.48C976.48 445.65 976.91 443.88 977.08 443.17C978.26 438.22 981.52 434.03 986.03 431.67C986.25 431.55 986.83 431.25 987.74 430.76C986.87 432.03 986.32 432.81 986.1 433.13C983.68 436.63 982.26 440.73 981.99 444.97C981.96 445.44 981.89 446.61 981.77 448.48L975.8 448.48Z" id="a1XunmKlVc"></path><path d="M975.89 448.48C975.33 446.52 974.98 445.3 974.84 444.81C973.42 439.87 968.59 436.72 963.5 437.42C962.8 437.52 961.04 437.76 958.23 438.15C959.84 438.3 960.85 438.39 961.25 438.43C965.44 438.81 968.73 442.17 969.05 446.36C969.07 446.65 969.12 447.35 969.21 448.48L975.89 448.48Z" id="b1l1foqhNk"></path><path d="M978.57 448.48C979.13 446.52 979.48 445.3 979.62 444.81C981.04 439.87 985.87 436.72 990.96 437.42C991.66 437.52 993.42 437.76 996.23 438.15C994.62 438.3 993.61 438.39 993.21 438.43C989.02 438.81 985.73 442.17 985.41 446.36C985.39 446.65 985.34 447.35 985.25 448.48L978.57 448.48Z" id="e1GYUB1JMr"></path><path d="M13.29 109.65C18.72 109.71 22.11 109.76 23.47 109.77C24.02 109.78 24.17 109.02 23.66 108.82C21.18 107.83 16.17 105.83 13.67 104.83C13.31 104.69 13.45 104.15 13.84 104.19C16.12 104.47 21.18 105.08 23.65 105.37C23.92 105.41 24.03 105.03 23.78 104.92C21.1 103.72 16.12 101.5 13.84 100.48C13.36 100.27 13.59 99.55 14.1 99.65C17.46 100.3 20.72 100.93 23.31 101.43C24.23 101.61 24.62 100.3 23.76 99.94C21.08 98.84 17.22 97.24 13.8 95.83C13.36 95.65 13.56 94.99 14.03 95.07C16.95 95.59 21.37 96.39 24.12 96.88C24.73 96.99 24.99 96.14 24.42 95.9C21.5 94.65 16.95 92.7 14.03 91.45C13.56 91.25 13.79 90.53 14.29 90.64C15.87 90.99 19.82 91.86 26.14 93.25" id="e1cI4kCZSJ"></path><path d="" id="bd0B1Bc0H"></path><path d="M13.29 22.64C18.72 22.71 22.11 22.75 23.47 22.77C24.02 22.78 24.17 22.02 23.66 21.81C21.18 20.83 16.17 18.83 13.67 17.83C13.31 17.69 13.45 17.14 13.84 17.19C16.12 17.46 21.18 18.08 23.65 18.37C23.92 18.41 24.03 18.03 23.78 17.91C21.1 16.72 16.12 14.49 13.84 13.48C13.36 13.27 13.59 12.55 14.1 12.65C17.46 13.3 20.72 13.93 23.31 14.43C24.23 14.6 24.62 13.3 23.76 12.94C21.08 11.83 17.22 10.24 13.8 8.83C13.36 8.65 13.56 7.98 14.03 8.07C16.95 8.59 21.37 9.39 24.12 9.88C24.73 9.99 24.99 9.14 24.42 8.89C21.5 7.65 16.95 5.7 14.03 4.45C13.56 4.25 13.79 3.53 14.29 3.64C15.87 3.99 19.82 4.86 26.14 6.25" id="a1OUg1mo4"></path><path d="M983.15 23.39C977.72 23.46 974.33 23.5 972.97 23.52C972.42 23.52 972.27 22.76 972.78 22.56C975.25 21.57 980.27 19.57 982.77 18.58C983.13 18.43 982.99 17.89 982.6 17.94C980.32 18.21 975.26 18.82 972.79 19.12C972.52 19.15 972.41 18.77 972.66 18.66C975.34 17.46 980.32 15.24 982.6 14.22C983.08 14.01 982.85 13.3 982.34 13.4C978.98 14.04 975.72 14.67 973.13 15.17C972.21 15.35 971.81 14.05 972.68 13.69C975.36 12.58 979.22 10.99 982.64 9.58C983.08 9.39 982.88 8.73 982.41 8.81C979.49 9.34 975.07 10.14 972.32 10.63C971.71 10.74 971.45 9.88 972.02 9.64C974.93 8.39 979.49 6.45 982.41 5.2C982.88 4.99 982.65 4.28 982.15 4.39C980.57 4.73 976.62 5.61 970.3 7" id="aYEEw1ChG"></path><path d="M983.15 111.37C977.72 111.44 974.33 111.48 972.97 111.5C972.42 111.5 972.27 110.74 972.78 110.54C975.25 109.55 980.27 107.55 982.77 106.56C983.13 106.41 982.99 105.87 982.6 105.92C980.32 106.19 975.26 106.8 972.79 107.1C972.52 107.13 972.41 106.75 972.66 106.64C975.34 105.44 980.32 103.22 982.6 102.2C983.08 101.99 982.85 101.28 982.34 101.38C978.98 102.02 975.72 102.65 973.13 103.15C972.21 103.33 971.81 102.03 972.68 101.67C975.36 100.56 979.22 98.97 982.64 97.56C983.08 97.37 982.88 96.71 982.41 96.79C979.49 97.32 975.07 98.11 972.32 98.61C971.71 98.72 971.45 97.86 972.02 97.62C974.93 96.37 979.49 94.42 982.41 93.18C982.88 92.97 982.65 92.25 982.15 92.37C980.57 92.71 976.62 93.58 970.3 94.98" id="d8O1FTzl9"></path><path d="" id="f2IMEE1hk2"></path></defs><g><g><g><g><use xlink:href="#a1iIvCHVUQ" opacity="1" fill-opacity="0" stroke="#bc8b08" stroke-width="3" stroke-opacity="1"></use></g></g><g><g><use xlink:href="#afJrOBdjj" opacity="1" fill-opacity="0" stroke="#bc8b08" stroke-width="3" stroke-opacity="1"></use></g></g><g><g><use xlink:href="#b1nVb4Ajxe" opacity="1" fill-opacity="0" stroke="#bc8b08" stroke-width="3" stroke-opacity="1"></use></g></g><g><use xlink:href="#fEQtqttiB" opacity="1" fill="#a8e6cf" fill-opacity="1"></use><g><use xlink:href="#fEQtqttiB" opacity="1" fill-opacity="0" stroke="#a8e6cf" stroke-width="3" stroke-opacity="1"></use></g></g><g><use xlink:href="#f50eIaq3ea" opacity="1" fill="#dcedc1" fill-opacity="1"></use><g><use xlink:href="#f50eIaq3ea" opacity="1" fill-opacity="0" stroke="#dcedc1" stroke-width="3" stroke-opacity="1"></use></g></g><g><use xlink:href="#b2a744A8Xe" opacity="1" fill="#ffd3b6" fill-opacity="1"></use><g><use xlink:href="#b2a744A8Xe" opacity="1" fill-opacity="0" stroke="#ffd3b6" stroke-width="3" stroke-opacity="1"></use></g></g><g><use xlink:href="#a2XJZuGNJ" opacity="1" fill="#ffaaa5" fill-opacity="1"></use><g><use xlink:href="#a2XJZuGNJ" opacity="1" fill-opacity="0" stroke="#ffaaa5" stroke-width="3" stroke-opacity="1"></use></g></g><g><use xlink:href="#b2MqqqjvSp" opacity="1" fill="#ff8b94" fill-opacity="1"></use><g><use xlink:href="#b2MqqqjvSp" opacity="1" fill-opacity="0" stroke="#ff8b94" stroke-width="3" stroke-opacity="1"></use></g></g><g><use xlink:href="#g2a0SYC4KS" opacity="1" fill="#dcedc1" fill-opacity="1"></use><g><use xlink:href="#g2a0SYC4KS" opacity="1" fill-opacity="0" stroke="#dcedc1" stroke-width="3" stroke-opacity="1"></use></g></g><g><use xlink:href="#ddqeMEeBk" opacity="1" fill="#ffd3b6" fill-opacity="1"></use><g><use xlink:href="#ddqeMEeBk" opacity="1" fill-opacity="0" stroke="#ffd3b6" stroke-width="3" stroke-opacity="1"></use></g></g><g><use xlink:href="#cDJZ0Buik" opacity="1" fill="#ffaaa5" fill-opacity="1"></use><g><use xlink:href="#cDJZ0Buik" opacity="1" fill-opacity="0" stroke="#ffaaa5" stroke-width="3" stroke-opacity="1"></use></g></g><g><use xlink:href="#a1t2oJlZzj" opacity="1" fill="#ff8b94" fill-opacity="1"></use><g><use xlink:href="#a1t2oJlZzj" opacity="1" fill-opacity="0" stroke="#ff8b94" stroke-width="3" stroke-opacity="1"></use></g></g><g><use xlink:href="#b2H4XqhDeD" opacity="1" fill="#a8e6cf" fill-opacity="1"></use><g><use xlink:href="#b2H4XqhDeD" opacity="1" fill-opacity="0" stroke="#a8e6cf" stroke-width="3" stroke-opacity="1"></use></g></g><g><use xlink:href="#gCCW4CAg" opacity="1" fill="#dcedc1" fill-opacity="1"></use><g><use xlink:href="#gCCW4CAg" opacity="1" fill-opacity="0" stroke="#dcedc1" stroke-width="3" stroke-opacity="1"></use></g></g><g><use xlink:href="#d1jl83kp6Z" opacity="1" fill="#ffd3b6" fill-opacity="1"></use><g><use xlink:href="#d1jl83kp6Z" opacity="1" fill-opacity="0" stroke="#ffd3b6" stroke-width="3" stroke-opacity="1"></use></g></g><g><use xlink:href="#dJqm6HRPb" opacity="1" fill="#ffaaa5" fill-opacity="1"></use><g><use xlink:href="#dJqm6HRPb" opacity="1" fill-opacity="0" stroke="#ffaaa5" stroke-width="3" stroke-opacity="1"></use></g></g><g><use xlink:href="#akriZPxSm" opacity="1" fill="#ff8b94" fill-opacity="1"></use><g><use xlink:href="#akriZPxSm" opacity="1" fill-opacity="0" stroke="#ff8b94" stroke-width="3" stroke-opacity="1"></use></g></g><g><use xlink:href="#a1KCIbFjB" opacity="1" fill="#a8e6cf" fill-opacity="1"></use><g><use xlink:href="#a1KCIbFjB" opacity="1" fill-opacity="0" stroke="#a8e6cf" stroke-width="3" stroke-opacity="1"></use></g></g><g><use xlink:href="#b10mJQdBq9" opacity="1" fill="#dcedc1" fill-opacity="1"></use><g><use xlink:href="#b10mJQdBq9" opacity="1" fill-opacity="0" stroke="#dcedc1" stroke-width="3" stroke-opacity="1"></use></g></g><g><use xlink:href="#a1PZOxYfQY" opacity="1" fill="#ffd3b6" fill-opacity="1"></use><g><use xlink:href="#a1PZOxYfQY" opacity="1" fill-opacity="0" stroke="#ffd3b6" stroke-width="3" stroke-opacity="1"></use></g></g><g><use xlink:href="#a9uQTX4qq" opacity="1" fill="#ffaaa5" fill-opacity="1"></use><g><use xlink:href="#a9uQTX4qq" opacity="1" fill-opacity="0" stroke="#ffaaa5" stroke-width="3" stroke-opacity="1"></use></g></g><g><use xlink:href="#a21hOCllBo" opacity="1" fill="#ff8b94" fill-opacity="1"></use><g><use xlink:href="#a21hOCllBo" opacity="1" fill-opacity="0" stroke="#ff8b94" stroke-width="3" stroke-opacity="1"></use></g></g><g><use xlink:href="#b2zYvglobQ" opacity="1" fill="#a8e6cf" fill-opacity="1"></use><g><use xlink:href="#b2zYvglobQ" opacity="1" fill-opacity="0" stroke="#a8e6cf" stroke-width="3" stroke-opacity="1"></use></g></g><g><use xlink:href="#aqvyTyJJe" opacity="1" fill="#dcedc1" fill-opacity="1"></use><g><use xlink:href="#aqvyTyJJe" opacity="1" fill-opacity="0" stroke="#dcedc1" stroke-width="3" stroke-opacity="1"></use></g></g><g><use xlink:href="#f1JKwoH0sh" opacity="1" fill="#ffd3b6" fill-opacity="1"></use><g><use xlink:href="#f1JKwoH0sh" opacity="1" fill-opacity="0" stroke="#ffd3b6" stroke-width="3" stroke-opacity="1"></use></g></g><g><use xlink:href="#a2IQD66Whb" opacity="1" fill="#ffaaa5" fill-opacity="1"></use><g><use xlink:href="#a2IQD66Whb" opacity="1" fill-opacity="0" stroke="#ffaaa5" stroke-width="3" stroke-opacity="1"></use></g></g><g><use xlink:href="#cnopB7fwS" opacity="1" fill="#a8e6cf" fill-opacity="1"></use><g><use xlink:href="#cnopB7fwS" opacity="1" fill-opacity="0" stroke="#a8e6cf" stroke-width="3" stroke-opacity="1"></use></g></g><g><g><use xlink:href="#c370FviGme" opacity="1" fill-opacity="0" stroke="#5c2424" stroke-width="1" stroke-opacity="1"></use></g></g><g><g><use xlink:href="#d1X115mB2l" opacity="1" fill-opacity="0" stroke="#5c2424" stroke-width="1" stroke-opacity="1"></use></g></g><g><g><use xlink:href="#aGr6TcjS9" opacity="1" fill-opacity="0" stroke="#5c2424" stroke-width="1" stroke-opacity="1"></use></g></g><g><g><use xlink:href="#aewvHQzcY" opacity="1" fill-opacity="0" stroke="#5c2424" stroke-width="1" stroke-opacity="1"></use></g></g><g><g><use xlink:href="#a3sPdpz3V" opacity="1" fill-opacity="0" stroke="#5c2424" stroke-width="1" stroke-opacity="1"></use></g></g><g><g><use xlink:href="#b8OyoBfZd" opacity="1" fill-opacity="0" stroke="#5c2424" stroke-width="1" stroke-opacity="1"></use></g></g><g><use xlink:href="#c1JISvqcDy" opacity="1" fill="#815100" fill-opacity="1"></use><g><use xlink:href="#c1JISvqcDy" opacity="1" fill-opacity="0" stroke="#623e00" stroke-width="2" stroke-opacity="1"></use></g></g><g><use xlink:href="#c414YtL9Uz" opacity="1" fill="#815100" fill-opacity="1"></use><g><use xlink:href="#c414YtL9Uz" opacity="1" fill-opacity="0" stroke="#623e00" stroke-width="2" stroke-opacity="1"></use></g></g><g><use xlink:href="#c5QIgxx476" opacity="1" fill="#14e70c" fill-opacity="1"></use><g><use xlink:href="#c5QIgxx476" opacity="1" fill-opacity="0" stroke="#15bc0e" stroke-width="1" stroke-opacity="1"></use></g></g><g><use xlink:href="#k22lVhwL3m" opacity="1" fill="#14e70c" fill-opacity="1"></use><g><use xlink:href="#k22lVhwL3m" opacity="1" fill-opacity="0" stroke="#15bc0e" stroke-width="1" stroke-opacity="1"></use></g></g><g><use xlink:href="#b2R6FNawik" opacity="1" fill="#14e70c" fill-opacity="1"></use><g><use xlink:href="#b2R6FNawik" opacity="1" fill-opacity="0" stroke="#15bc0e" stroke-width="1" stroke-opacity="1"></use></g></g><g><use xlink:href="#ec9eyJDJC" opacity="1" fill="#14e70c" fill-opacity="1"></use><g><use xlink:href="#ec9eyJDJC" opacity="1" fill-opacity="0" stroke="#15bc0e" stroke-width="1" stroke-opacity="1"></use></g></g><g><use xlink:href="#c13K3DE7Ay" opacity="1" fill="#14e70c" fill-opacity="1"></use><g><use xlink:href="#c13K3DE7Ay" opacity="1" fill-opacity="0" stroke="#15bc0e" stroke-width="1" stroke-opacity="1"></use></g></g><g><use xlink:href="#k5F7eNF0gW" opacity="1" fill="#14e70c" fill-opacity="1"></use><g><use xlink:href="#k5F7eNF0gW" opacity="1" fill-opacity="0" stroke="#15bc0e" stroke-width="1" stroke-opacity="1"></use></g></g><g><use xlink:href="#c6ks8Ubnfu" opacity="1" fill="#14e70c" fill-opacity="1"></use><use xlink:href="#c6ks8Ubnfu" opacity="1" fill="#14e70c" fill-opacity="1"></use><use xlink:href="#c6ks8Ubnfu" opacity="1" fill="#14e70c" fill-opacity="1"></use><g><use xlink:href="#c6ks8Ubnfu" opacity="1" fill-opacity="0" stroke="#15bc0e" stroke-width="1" stroke-opacity="1"></use></g></g><g><use xlink:href="#a44okhJkDv" opacity="1" fill="#14e70c" fill-opacity="1"></use><g><use xlink:href="#a44okhJkDv" opacity="1" fill-opacity="0" stroke="#15bc0e" stroke-width="1" stroke-opacity="1"></use></g></g><g><use xlink:href="#f3o0uwzjnA" opacity="1" fill="#14e70c" fill-opacity="1"></use><g><use xlink:href="#f3o0uwzjnA" opacity="1" fill-opacity="0" stroke="#15bc0e" stroke-width="1" stroke-opacity="1"></use></g></g><g><use xlink:href="#a1XunmKlVc" opacity="1" fill="#14e70c" fill-opacity="1"></use><g><use xlink:href="#a1XunmKlVc" opacity="1" fill-opacity="0" stroke="#15bc0e" stroke-width="1" stroke-opacity="1"></use></g></g><g><use xlink:href="#b1l1foqhNk" opacity="1" fill="#14e70c" fill-opacity="1"></use><g><use xlink:href="#b1l1foqhNk" opacity="1" fill-opacity="0" stroke="#15bc0e" stroke-width="1" stroke-opacity="1"></use></g></g><g><use xlink:href="#e1GYUB1JMr" opacity="1" fill="#14e70c" fill-opacity="1"></use><g><use xlink:href="#e1GYUB1JMr" opacity="1" fill-opacity="0" stroke="#15bc0e" stroke-width="1" stroke-opacity="1"></use></g></g><g><g><use xlink:href="#e1cI4kCZSJ" opacity="1" fill-opacity="0" stroke="#bc8b08" stroke-width="2" stroke-opacity="1"></use></g></g><g><g><use xlink:href="#bd0B1Bc0H" opacity="1" fill-opacity="0" stroke="#bc8b08" stroke-width="3" stroke-opacity="1"></use></g></g><g><g><use xlink:href="#a1OUg1mo4" opacity="1" fill-opacity="0" stroke="#bc8b08" stroke-width="2" stroke-opacity="1"></use></g></g><g><g><use xlink:href="#aYEEw1ChG" opacity="1" fill-opacity="0" stroke="#bc8b08" stroke-width="2" stroke-opacity="1"></use></g></g><g><g><use xlink:href="#d8O1FTzl9" opacity="1" fill-opacity="0" stroke="#bc8b08" stroke-width="2" stroke-opacity="1"></use></g></g><g><g><use xlink:href="#f2IMEE1hk2" opacity="1" fill-opacity="0" stroke="#203bc2" stroke-width="4" stroke-opacity="1"></use></g></g></g></g></svg>