<?xml version="1.0" encoding="UTF-8" standalone="no"?>
<!DOCTYPE svg PUBLIC "-//W3C//DTD SVG 1.1//EN" "http://www.w3.org/Graphics/SVG/1.1/DTD/svg11.dtd">
<svg version="1.1" xmlns="http://www.w3.org/2000/svg" xmlns:xlink="http://www.w3.org/1999/xlink" preserveAspectRatio="xMidYMid meet" viewBox="0 0 550 550" width="550" height="550"><defs><path d="M533.65 275.84C533.65 418.59 417.75 534.48 275 534.48C132.25 534.48 16.35 418.59 16.35 275.84C16.35 133.08 132.25 17.19 275 17.19C417.75 17.19 533.65 133.08 533.65 275.84Z" id="a2DcsZSH3Z"></path><path d="M456 275C456 374.9 374.9 456 275 456C175.1 456 94 374.9 94 275C94 175.1 175.1 94 275 94C374.9 94 456 175.1 456 275Z" id="e1KhmdT4Bc"></path><path d="M376.14 275C376.14 330.82 330.82 376.14 275 376.14C219.18 376.14 173.86 330.82 173.86 275C173.86 219.18 219.18 173.86 275 173.86C330.82 173.86 376.14 219.18 376.14 275Z" id="b3RfVEe0hh"></path></defs><g><g><g><g><use xlink:href="#a2DcsZSH3Z" opacity="1" fill-opacity="0" stroke="#262626" stroke-width="10" stroke-opacity="1"></use></g></g><g><g><use xlink:href="#e1KhmdT4Bc" opacity="1" fill-opacity="0" stroke="#262626" stroke-width="10" stroke-opacity="1"></use></g></g><g><use xlink:href="#b3RfVEe0hh" opacity="1" fill="#262626" fill-opacity="1"></use></g></g></g></svg>