<?xml version="1.0" encoding="UTF-8" standalone="no"?>
<!DOCTYPE svg PUBLIC "-//W3C//DTD SVG 1.1//EN" "http://www.w3.org/Graphics/SVG/1.1/DTD/svg11.dtd">
<svg version="1.1" xmlns="http://www.w3.org/2000/svg" xmlns:xlink="http://www.w3.org/1999/xlink" preserveAspectRatio="xMidYMid meet" viewBox="0 0 550 550" width="550" height="550"><defs><path d="M299.62 127.15L299.79 127.24L300.3 127.58L300.47 127.75L300.73 127.92L300.9 128.09L301.07 128.34L301.24 128.51L301.41 128.77L301.67 129.03L302.01 129.54L302.09 129.79L302.44 130.3L302.61 130.64L302.78 130.9L302.86 131.24L303.03 131.5L303.2 131.84L303.29 132.18L303.46 132.52L303.55 132.86L303.89 133.54L303.97 133.97L304.14 134.31L304.23 134.65L304.4 135.07L304.48 135.41L304.57 135.84L311.06 159.86L313.02 160.46L317.54 162.08L321.88 163.86L326.14 165.73L330.41 167.78L330.75 168.03L352.38 155.49L352.72 155.24L354.77 154.22L355.11 154.13L355.79 153.79L356.13 153.7L356.47 153.53L356.81 153.45L357.07 153.28L358.09 153.02L358.34 152.93L358.69 152.85L358.94 152.76L359.28 152.76L359.54 152.68L360.13 152.68L360.39 152.59L360.65 152.68L361.5 152.68L362.78 153.1L363.03 153.27L363.29 153.36L363.46 153.53L363.71 153.7L396.11 186.06L396.28 186.31L396.37 186.48L396.71 186.99L397.05 188.02L397.13 188.36L397.22 188.61L397.22 190.66L397.14 190.91L397.05 191.25L397.05 191.51L396.88 192.19L396.8 192.45L396.63 192.79L396.46 193.47L396.29 193.81L396.12 194.07L396.03 194.41L395.18 196.11L394.92 196.45L394.75 196.71L394.58 197.05L394.33 197.39L381.9 219.04L382.16 219.47L384.2 223.73L386.08 227.99L387.87 232.33L389.41 236.84L390.09 238.8L414.12 245.18L414.55 245.35L414.89 245.44L415.32 245.52L416 245.69L416.43 245.86L417.11 246.03L417.45 246.2L417.79 246.29L418.13 246.46L418.39 246.54L419.07 246.88L419.32 247.05L419.66 247.14L420.94 247.99L421.2 248.24L421.45 248.41L422.05 249.01L422.22 249.27L422.39 249.44L422.73 249.95L422.82 250.2L422.99 250.37L423.16 250.88L423.25 251.22L423.33 251.48L423.33 251.74L423.42 252.08L423.44 297.75L423.36 298.09L423.36 298.34L423.02 299.37L422.85 299.62L422.76 299.79L422.42 300.3L422.25 300.47L422.08 300.73L421.91 300.9L421.66 301.07L421.49 301.24L421.23 301.41L420.97 301.67L420.46 302.01L420.21 302.09L419.7 302.44L419.36 302.61L419.1 302.78L418.76 302.86L418.42 303.03L418.16 303.2L417.82 303.29L417.48 303.46L417.14 303.55L416.46 303.89L416.03 303.97L415.69 304.14L415.35 304.23L414.93 304.4L414.59 304.48L414.16 304.57L390.14 311.06L389.46 313.02L387.92 317.54L386.14 321.88L384.27 326.14L382.22 330.41L381.97 330.83L394.42 352.38L394.68 352.72L394.85 352.98L395.02 353.32L395.27 353.66L396.13 355.36L396.21 355.7L396.38 355.96L396.55 356.3L396.72 356.98L396.89 357.24L397.15 358.26L397.15 358.52L397.24 358.86L397.32 359.11L397.32 361.16L397.24 361.41L397.15 361.75L396.81 362.78L396.64 363.03L396.47 363.2L396.39 363.46L396.22 363.71L364.11 395.86L363.86 396.03L363.6 396.28L363.43 396.37L362.92 396.71L361.9 397.05L361.64 397.05L361.39 397.14L359.68 397.14L359.43 397.05L359.09 397.05L358.83 396.97L358.49 396.88L358.23 396.8L357.21 396.54L356.96 396.37L356.61 396.29L356.27 396.12L355.93 396.03L354.91 395.52L354.57 395.43L352.86 394.58L352.52 394.33L330.96 381.9L330.53 382.16L326.27 384.2L322.01 386.08L317.67 387.87L313.16 389.41L311.2 390.09L304.73 414.12L304.65 414.55L304.56 414.89L304.39 415.32L304.31 415.66L304.14 416L304.05 416.43L303.71 417.11L303.63 417.45L303.46 417.79L303.37 418.13L303.2 418.39L303.03 418.73L302.95 419.07L302.78 419.32L302.61 419.66L302.27 420.18L302.18 420.43L301.84 420.94L301.59 421.2L301.42 421.45L301.25 421.63L301.08 421.88L300.9 422.05L300.65 422.22L300.48 422.39L299.97 422.73L299.8 422.82L299.54 422.99L298.52 423.33L298.26 423.33L297.92 423.42L252.25 423.44L251.91 423.36L251.66 423.36L251.4 423.27L251.06 423.19L250.55 423.02L250.38 422.85L250.12 422.76L249.61 422.42L249.44 422.25L249.18 422.08L248.59 421.49L248.42 421.23L248.16 420.97L247.31 419.7L247.22 419.36L247.05 419.1L246.71 418.42L246.63 418.16L246.46 417.82L246.37 417.48L246.2 417.14L246.03 416.46L245.86 416.03L245.69 415.35L245.6 414.93L245.52 414.59L245.35 414.16L238.94 390.14L236.98 389.46L232.46 387.92L228.12 386.14L223.86 384.27L219.59 382.22L219.08 381.88L197.62 394.34L197.28 394.59L196.94 394.76L196.68 394.93L196.34 395.19L194.64 396.04L194.3 396.13L194.04 396.3L193.7 396.38L193.36 396.55L193.02 396.64L192.68 396.81L192.42 396.89L191.74 397.07L191.48 397.07L191.14 397.15L190.89 397.24L188.84 397.24L188.59 397.15L188.25 397.07L187.22 396.73L186.71 396.39L186.54 396.3L186.29 396.05L186.03 395.88L153.89 363.77L153.72 363.52L153.63 363.35L153.29 362.84L152.95 361.81L152.95 361.56L152.87 361.3L152.86 359.6L152.95 359.34L152.95 359L153.03 358.75L153.12 358.4L153.2 358.15L153.46 357.13L153.63 356.87L153.71 356.53L153.88 356.19L153.97 355.85L154.31 355.17L154.39 354.82L155.42 352.78L155.67 352.44L168.1 330.87L167.84 330.53L165.8 326.27L163.92 322.01L162.13 317.67L160.51 313.16L159.91 311.2L135.88 304.73L135.45 304.65L135.11 304.56L134.68 304.39L134.34 304.31L134 304.14L133.57 304.05L132.89 303.71L132.55 303.63L132.21 303.46L131.87 303.37L131.53 303.2L131.27 303.03L130.93 302.95L130.68 302.78L130.34 302.61L129.82 302.27L129.57 302.18L129.06 301.84L128.8 301.59L128.55 301.42L128.38 301.25L128.12 301.08L127.95 300.9L127.78 300.65L127.61 300.48L127.27 299.97L127.18 299.8L127.01 299.54L126.58 298.26L126.56 251.91L126.73 251.4L126.81 251.06L126.98 250.55L127.15 250.38L127.24 250.12L127.58 249.61L127.75 249.44L127.92 249.18L128.51 248.59L128.77 248.42L129.03 248.16L130.3 247.31L130.64 247.22L130.9 247.05L131.24 246.88L131.5 246.71L131.84 246.63L132.18 246.46L132.52 246.37L132.86 246.2L133.54 246.03L133.97 245.86L134.65 245.69L135.07 245.6L135.41 245.52L135.84 245.35L159.86 238.94L160.46 236.98L162.08 232.46L163.86 228.12L165.73 223.86L167.78 219.59L168.03 219.17L155.58 197.62L155.32 197.28L154.3 195.23L154.21 194.89L153.87 194.21L153.79 193.87L153.62 193.53L153.53 193.19L153.36 192.85L153.28 192.59L153.11 191.91L153.02 191.66L152.93 191.31L152.85 191.06L152.85 190.72L152.76 190.46L152.76 188.76L152.85 188.5L152.85 188.25L153.19 187.22L153.53 186.71L153.61 186.54L153.78 186.29L186.14 153.89L186.4 153.72L186.57 153.55L186.82 153.46L187.08 153.29L188.1 152.95L188.44 152.87L188.7 152.78L189.21 152.78L189.55 152.69L189.81 152.69L190.15 152.78L190.74 152.78L191 152.86L191.34 152.95L191.6 152.95L192.28 153.12L192.53 153.2L192.87 153.37L193.56 153.54L193.9 153.71L194.15 153.88L194.49 153.97L196.54 154.99L196.79 155.25L197.14 155.42L197.48 155.67L219.04 168.1L219.47 167.84L223.73 165.8L227.99 163.92L232.33 162.13L236.84 160.51L238.8 159.91L245.18 135.88L245.35 135.45L245.44 135.11L245.52 134.68L245.69 134L245.86 133.57L246.03 132.89L246.2 132.55L246.29 132.21L246.46 131.87L246.54 131.53L246.71 131.27L246.88 130.93L247.05 130.68L247.14 130.34L247.99 129.06L248.24 128.8L248.41 128.55L249.01 127.95L249.27 127.78L249.44 127.61L249.95 127.27L250.2 127.18L250.37 127.01L250.88 126.84L251.22 126.75L251.74 126.58L298.09 126.56L299.37 126.98L299.62 127.15ZM269.59 210.25L267.04 210.5L264.4 210.93L261.84 211.36L259.37 211.96L256.9 212.64L254.43 213.41L252.04 214.26L249.66 215.2L247.36 216.22L245.14 217.33L242.93 218.53L240.71 219.81L238.67 221.17L236.63 222.62L234.58 224.16L232.71 225.69L230.83 227.4L229.05 229.1L227.34 230.89L225.64 232.77L224.11 234.64L222.58 236.69L221.13 238.73L219.77 240.78L218.49 243L217.3 245.21L216.19 247.43L215.17 249.73L214.23 252.12L213.38 254.5L212.62 256.97L211.94 259.44L211.34 261.92L210.92 264.47L210.49 267.11L210.24 269.67L210.07 272.4L210.07 277.68L210.25 280.32L210.5 282.96L210.93 285.6L211.36 288.16L211.96 290.63L212.64 293.1L213.41 295.57L214.26 297.96L215.2 300.34L216.22 302.64L217.33 304.86L218.53 307.07L219.81 309.2L221.17 311.33L222.62 313.37L225.69 317.29L227.4 319.17L229.1 320.95L230.89 322.66L232.77 324.36L234.64 325.89L236.69 327.42L238.73 328.87L240.78 330.23L243 331.51L245.21 332.7L247.43 333.81L249.73 334.83L252.12 335.77L254.5 336.62L256.97 337.38L259.44 338.06L261.92 338.66L264.47 339.08L267.11 339.51L269.67 339.76L272.4 339.93L277.68 339.93L280.32 339.75L282.96 339.5L285.6 339.07L288.16 338.64L290.63 338.04L293.1 337.36L295.57 336.59L297.96 335.74L300.34 334.8L302.64 333.78L304.86 332.67L307.07 331.47L309.2 330.19L311.33 328.83L313.37 327.38L317.29 324.31L319.17 322.6L320.95 320.9L322.66 319.11L324.36 317.23L327.42 313.31L328.87 311.27L330.23 309.14L331.51 307L332.7 304.79L333.81 302.57L334.83 300.27L335.77 297.88L336.62 295.5L337.38 293.03L338.06 290.56L338.66 288.08L339.08 285.53L339.51 282.89L339.76 280.24L339.93 277.6L339.93 272.32L339.75 269.59L339.5 267.04L339.07 264.4L338.64 261.84L338.04 259.37L337.36 256.9L336.59 254.43L335.74 252.04L334.8 249.66L333.78 247.36L332.67 245.14L331.47 242.93L330.19 240.71L328.83 238.67L327.38 236.63L325.84 234.58L324.31 232.71L322.6 230.83L320.9 229.05L319.11 227.34L317.23 225.64L313.31 222.58L311.27 221.13L309.14 219.77L307 218.49L304.79 217.3L302.57 216.19L300.27 215.17L297.88 214.23L295.5 213.38L293.03 212.62L290.56 211.94L288.08 211.34L285.53 210.92L282.89 210.49L280.24 210.24L277.6 210.07L272.32 210.07L269.59 210.25Z" id="f4K3zMeote"></path></defs><g><g><g><use xlink:href="#f4K3zMeote" opacity="1" fill="#6f6f6f" fill-opacity="1"></use><g><use xlink:href="#f4K3zMeote" opacity="1" fill-opacity="0" stroke="#363636" stroke-width="10" stroke-opacity="1"></use></g></g></g></g></svg>