<?xml version="1.0" encoding="UTF-8" standalone="no"?>
<!DOCTYPE svg PUBLIC "-//W3C//DTD SVG 1.1//EN" "http://www.w3.org/Graphics/SVG/1.1/DTD/svg11.dtd">
<svg version="1.1" xmlns="http://www.w3.org/2000/svg" xmlns:xlink="http://www.w3.org/1999/xlink" preserveAspectRatio="xMidYMid meet" viewBox="0 0 100 100" width="100" height="100"><defs><path d="M21.56 46.96C21.43 49.33 21.67 51.7 22.27 54C22.62 55.35 22.53 55 22.82 56.11C23.61 59.15 25.25 61.9 27.55 64.04C28.56 64.98 28.36 64.79 29.45 65.8C31.53 67.73 34.08 69.09 36.85 69.74C37.56 69.91 39.36 70.33 42.24 71C41.08 73.9 40.36 75.72 40.07 76.44C39.89 76.87 39.5 77.18 39.04 77.24C37.72 77.42 36.47 77.58 35.65 77.69C33.6 77.97 31.54 77.33 30 75.94C29.7 75.66 28.93 74.97 27.71 73.87C25.96 72.26 24.86 71.25 24.42 70.85C23.37 69.88 22.03 69.29 20.61 69.14C19.82 69.07 18.09 68.89 16.92 68.78C16.83 68.77 16.79 68.87 16.85 68.93C17.75 69.75 19.52 71.36 20.24 72.02C20.98 72.7 21.57 73.53 21.97 74.45C22.34 75.32 22.65 76.05 22.97 76.8C23.53 78.11 24.35 79.28 25.37 80.27C26.09 80.95 26.14 81 26.72 81.56C28.15 82.94 30.03 83.76 32.01 83.89C33.02 83.95 35.54 84.12 39.58 84.38L39.58 92.49C39.15 93.23 38.88 93.69 38.77 93.88C38.4 94.51 38.86 95.31 39.59 95.3C44.62 95.27 58.72 95.19 63.92 95.16C64.3 95.15 64.55 94.75 64.37 94.41C64.21 94.11 63.82 93.37 63.2 92.19C63.06 84.65 62.98 79.93 62.94 78.05C62.92 77.05 62.68 76.06 62.23 75.17C61.97 74.64 61.31 73.32 60.25 71.2C63.08 70.54 64.85 70.12 65.55 69.96C66.66 69.7 67.72 69.3 68.73 68.79C69.78 68.25 70.01 68.12 70.72 67.76C72.86 66.66 74.75 65.12 76.27 63.25C76.64 62.79 75.44 64.27 75.81 63.82C77.34 61.94 78.52 59.79 79.28 57.49C79.57 56.61 79.5 56.83 79.84 55.79C80.43 54.02 80.78 52.18 80.88 50.32C80.95 49.01 80.92 49.67 80.97 48.81C81.15 45.51 80.36 42.23 78.7 39.37C78.43 38.89 77.74 37.7 76.63 35.8C76.84 33.81 76.97 32.58 77.03 32.08C77.3 29.47 77.03 26.84 76.21 24.34C76.09 23.97 76.19 24.29 75.88 23.34C75.73 22.86 75.23 22.59 74.74 22.71C73.65 23 72.42 23.31 71.62 23.52C70.05 23.92 68.55 24.53 67.14 25.33C66.6 25.64 65.26 26.39 63.12 27.61C59.65 27.03 57.48 26.67 56.62 26.52C52.8 25.89 48.9 26 45.13 26.86C44.39 27.03 42.54 27.45 39.58 28.13C37.39 26.72 36.02 25.84 35.48 25.49C33.87 24.46 32.05 23.8 30.15 23.56C29.42 23.47 28.48 23.36 27.35 23.21C26.85 23.15 26.39 23.47 26.26 23.95C26.01 24.92 26.14 24.44 26.05 24.78C25.36 27.45 25.28 30.24 25.83 32.95C25.89 33.25 26.04 33.99 26.28 35.18C25.5 36.26 25.02 36.94 24.82 37.21C22.9 39.9 21.78 43.07 21.6 46.37C21.55 47.2 21.63 45.83 21.56 46.96Z" id="b2yf2jAGk"></path></defs><g><g><g><g><use xlink:href="#b2yf2jAGk" opacity="1" fill-opacity="0" stroke="#000000" stroke-width="2" stroke-opacity="1"></use></g></g></g></g></svg>