<?xml version="1.0" encoding="UTF-8" standalone="no"?>
<!DOCTYPE svg PUBLIC "-//W3C//DTD SVG 1.1//EN" "http://www.w3.org/Graphics/SVG/1.1/DTD/svg11.dtd">
<svg version="1.1" xmlns="http://www.w3.org/2000/svg" xmlns:xlink="http://www.w3.org/1999/xlink" preserveAspectRatio="xMidYMid meet" viewBox="0 0 100 100" width="100" height="100"><defs><path d="M25.36 42.78C25.24 44.82 25.45 46.87 25.96 48.85C26.27 50.01 26.19 49.71 26.44 50.67C27.12 53.28 28.53 55.65 30.51 57.49C31.39 58.3 31.21 58.14 32.15 59.01C33.94 60.68 36.14 61.84 38.52 62.4C39.14 62.55 40.69 62.91 43.17 63.49C42.17 65.99 41.54 67.55 41.29 68.18C41.14 68.55 40.81 68.81 40.41 68.86C39.27 69.02 38.2 69.16 37.48 69.25C35.72 69.49 33.94 68.94 32.63 67.74C32.36 67.51 31.7 66.91 30.65 65.96C29.14 64.57 28.2 63.71 27.82 63.36C26.91 62.53 25.76 62.01 24.53 61.89C23.85 61.82 22.37 61.67 21.36 61.57C21.28 61.57 21.24 61.65 21.3 61.7C22.08 62.41 23.6 63.8 24.22 64.37C24.86 64.95 25.36 65.66 25.7 66.46C26.02 67.21 26.29 67.84 26.57 68.49C27.05 69.61 27.76 70.62 28.64 71.47C29.25 72.06 29.3 72.11 29.8 72.58C31.03 73.77 32.64 74.48 34.35 74.59C35.22 74.65 37.4 74.78 40.88 75.01L40.88 82C40.5 82.64 40.27 83.03 40.17 83.19C39.85 83.74 40.25 84.42 40.88 84.42C45.22 84.39 57.36 84.32 61.84 84.3C62.17 84.29 62.38 83.94 62.22 83.65C62.09 83.4 61.75 82.76 61.22 81.74C61.1 75.24 61.03 71.18 61 69.56C60.98 68.7 60.77 67.85 60.39 67.08C60.16 66.62 59.59 65.48 58.68 63.67C61.11 63.09 62.63 62.74 63.24 62.59C64.19 62.37 65.11 62.03 65.98 61.58C66.88 61.12 67.09 61.01 67.69 60.7C69.54 59.75 71.17 58.43 72.48 56.81C72.8 56.42 71.76 57.7 72.08 57.3C73.4 55.68 74.41 53.83 75.07 51.85C75.31 51.1 75.25 51.28 75.55 50.39C76.05 48.87 76.35 47.28 76.44 45.68C76.51 44.55 76.48 45.12 76.52 44.38C76.68 41.53 76 38.71 74.57 36.25C74.33 35.83 73.74 34.81 72.78 33.17C72.97 31.46 73.08 30.4 73.12 29.97C73.36 27.72 73.13 25.45 72.42 23.31C72.32 22.99 72.41 23.26 72.14 22.44C72.01 22.03 71.58 21.79 71.16 21.9C70.22 22.14 69.16 22.42 68.47 22.59C67.12 22.94 65.82 23.47 64.61 24.16C64.15 24.42 62.99 25.07 61.15 26.12C58.16 25.62 56.29 25.31 55.55 25.18C52.26 24.64 48.9 24.73 45.65 25.47C45.02 25.62 43.42 25.98 40.88 26.56C38.99 25.35 37.81 24.6 37.34 24.29C35.95 23.41 34.39 22.84 32.75 22.63C32.12 22.55 31.32 22.45 30.34 22.33C29.91 22.28 29.51 22.55 29.41 22.96C29.19 23.81 29.3 23.39 29.22 23.68C28.63 25.98 28.56 28.39 29.03 30.72C29.08 30.97 29.21 31.61 29.42 32.64C28.75 33.57 28.33 34.16 28.16 34.39C26.51 36.7 25.54 39.44 25.38 42.28C25.34 42.99 25.41 41.81 25.36 42.78Z" id="c1UHYwupt"></path></defs><g><g><g><use xlink:href="#c1UHYwupt" opacity="1" fill="#505ebc" fill-opacity="1"></use><g><use xlink:href="#c1UHYwupt" opacity="1" fill-opacity="0" stroke="#505ebc" stroke-width="2" stroke-opacity="1"></use></g></g></g></g></svg>