<?xml version="1.0" encoding="UTF-8" standalone="no"?>
<!DOCTYPE svg PUBLIC "-//W3C//DTD SVG 1.1//EN" "http://www.w3.org/Graphics/SVG/1.1/DTD/svg11.dtd">
<svg version="1.1" xmlns="http://www.w3.org/2000/svg" xmlns:xlink="http://www.w3.org/1999/xlink" preserveAspectRatio="xMidYMid meet" viewBox="0 0 100 100" width="100" height="100"><defs><path d="M62.76 50.8C62.76 57.84 57.04 63.56 50 63.56C42.96 63.56 37.24 57.84 37.24 50.8C37.24 43.76 42.96 38.04 50 38.04C57.04 38.04 62.76 43.76 62.76 50.8Z" id="b1kkJ7bXn2"></path><path d="M70.7 32.96C70.7 34.65 69.33 36.02 67.65 36.02C65.96 36.02 64.6 34.65 64.6 32.96C64.6 31.28 65.96 29.91 67.65 29.91C69.33 29.91 70.7 31.28 70.7 32.96Z" id="b2khLOoOG"></path><path d="M25.31 32.77C24.84 34.12 24.6 35.54 24.6 36.97C24.6 42.07 24.6 56.01 24.6 61.31C24.6 61.31 24.73 63.68 24.73 63.68C24.89 65.28 24.89 65.3 24.97 66C25.33 69.5 27.55 72.54 30.77 73.96C31.25 74.17 30.04 73.64 31.17 74.13C32.47 74.7 33.89 75 35.31 75C41.62 75 58.43 75 64.76 75C66.12 75 67.48 74.74 68.75 74.24C69.82 73.81 69.21 74.05 69.81 73.82C72.46 72.76 74.37 70.39 74.83 67.57C74.94 66.88 74.68 68.48 74.83 67.57C75.21 65.25 75.4 62.9 75.4 60.54C75.4 55.27 75.4 42.58 75.4 37.2C75.4 35.2 75.06 33.21 74.4 31.32C74.1 30.47 74.45 31.46 74.21 30.78C73.4 28.46 71.46 26.72 69.07 26.15C68.09 25.92 68.58 26.04 67.5 25.79C65.29 25.26 63.01 25 60.74 25C55.6 25 43.35 25 38.15 25C36.09 25 34.04 25.27 32.05 25.8C31.1 26.05 32.12 25.78 31.38 25.97C28.83 26.65 26.77 28.55 25.91 31.05C25.65 31.8 25.71 31.63 25.31 32.77Z" id="c6qkDO6s2e"></path><path d="M22.08 30.54C21.55 32.06 21.28 33.66 21.28 35.27C21.28 41.02 21.28 56.73 21.28 62.7C21.28 62.7 21.42 65.37 21.42 65.37C21.61 67.17 21.61 67.2 21.69 67.99C22.1 71.93 24.6 75.36 28.23 76.95C28.77 77.18 27.41 76.59 28.68 77.14C30.15 77.79 31.74 78.13 33.35 78.13C40.46 78.13 59.41 78.13 66.53 78.13C68.07 78.13 69.6 77.83 71.03 77.27C72.24 76.79 71.55 77.06 72.22 76.79C75.22 75.61 77.37 72.93 77.88 69.76C78.01 68.97 77.71 70.78 77.88 69.76C78.31 67.14 78.52 64.49 78.52 61.83C78.52 55.89 78.52 41.59 78.52 35.53C78.52 33.27 78.14 31.03 77.4 28.91C77.06 27.94 77.45 29.06 77.18 28.29C76.27 25.68 74.08 23.71 71.39 23.08C70.28 22.82 70.84 22.95 69.63 22.67C67.13 22.08 64.57 21.78 62 21.78C56.21 21.78 42.41 21.78 36.55 21.78C34.23 21.78 31.92 22.08 29.67 22.68C28.6 22.96 29.75 22.66 28.92 22.88C26.04 23.64 23.73 25.79 22.75 28.6C22.46 29.45 22.53 29.25 22.08 30.54Z" id="c6qt2vcpzf"></path><path d="M59.79 50.95C59.79 56.36 55.4 60.75 50 60.75C44.6 60.75 40.21 56.36 40.21 50.95C40.21 45.55 44.6 41.16 50 41.16C55.4 41.16 59.79 45.55 59.79 50.95Z" id="a8ujnXhEd"></path></defs><g><g><g><g><use xlink:href="#b1kkJ7bXn2" opacity="1" fill-opacity="0" stroke="#000000" stroke-width="2" stroke-opacity="1"></use></g></g><g><g><use xlink:href="#b2khLOoOG" opacity="1" fill-opacity="0" stroke="#000000" stroke-width="2" stroke-opacity="1"></use></g></g><g></g><g><g><use xlink:href="#c6qt2vcpzf" opacity="1" fill-opacity="0" stroke="#000000" stroke-width="2" stroke-opacity="1"></use></g></g><g></g></g></g></svg>