<?xml version="1.0" encoding="UTF-8" standalone="no"?>
<!DOCTYPE svg PUBLIC "-//W3C//DTD SVG 1.1//EN" "http://www.w3.org/Graphics/SVG/1.1/DTD/svg11.dtd">
<svg version="1.1" xmlns="http://www.w3.org/2000/svg" xmlns:xlink="http://www.w3.org/1999/xlink" preserveAspectRatio="xMidYMid meet" viewBox="0 0 550 550" width="550" height="550"><defs><path d="M367.89 333.89C368.44 333.17 368.78 332.71 368.92 332.53C385.96 309.83 395.94 282.62 397.61 254.28C397.9 249.28 397.1 262.88 397.62 254.16C398.57 237.85 395.3 221.57 388.11 206.89C385.48 201.51 390.31 211.37 388.11 206.89C379.44 189.19 366.85 173.7 351.29 161.6C346.97 158.23 355.55 164.91 350.71 161.14C336.86 150.38 320.76 142.87 303.61 139.2C297.56 137.9 305.78 139.66 299.8 138.38C282.37 134.65 264.33 134.75 246.94 138.69C241.56 139.91 252.22 137.49 246.94 138.69C229.24 142.69 212.74 150.8 198.75 162.36C193.75 166.49 198.65 162.44 193.31 166.85C180.41 177.5 169.89 190.73 162.41 205.69C160.33 209.86 164.68 201.16 162.41 205.69C155.56 219.39 152.07 234.51 152.23 249.82C152.31 257.78 152.31 258.43 152.39 266.41C152.55 281.52 157.38 296.21 166.22 308.47C170.54 314.46 174.63 320.13 180.13 327.75C180.13 327.75 194.91 349.52 194.91 349.52C197.92 354.24 194.83 349.38 196.57 352.12C205.4 365.96 211.11 381.55 213.33 397.81C213.69 400.42 214.58 406.94 216 417.39C222.21 418.27 226.09 418.83 227.65 419.05C261.95 423.95 296.78 423.83 331.05 418.69C332.21 418.51 335.1 418.08 339.73 417.39C340.6 407.83 341.14 401.86 341.36 399.47C342.93 382.14 348.5 365.41 357.62 350.6C358.99 348.37 362.41 342.8 367.89 333.89Z" id="g8bpvsanr"></path><path d="M335.71 420.4C340.15 420.4 343.75 424.01 343.75 428.45C343.75 430.06 343.75 426.84 343.75 428.45C343.75 432.9 340.15 436.5 335.71 436.5C311.36 436.5 246.38 436.5 222.04 436.5C217.59 436.5 213.99 432.9 213.99 428.45C213.99 426.84 213.99 430.06 213.99 428.45C213.99 424.01 217.59 420.4 222.04 420.4C246.38 420.4 311.36 420.4 335.71 420.4Z" id="b4Sa8Po02M"></path><path d="M336.71 440.4C341.15 440.4 344.75 444.01 344.75 448.45C344.75 450.06 344.75 446.84 344.75 448.45C344.75 452.9 341.15 456.5 336.71 456.5C311.76 456.5 244.98 456.5 220.04 456.5C215.59 456.5 211.99 452.9 211.99 448.45C211.99 446.84 211.99 450.06 211.99 448.45C211.99 444.01 215.59 440.4 220.04 440.4C244.98 440.4 311.76 440.4 336.71 440.4Z" id="a2yZ6SqO9e"></path><path d="M336.71 460.4C341.15 460.4 344.75 464.01 344.75 468.45C344.75 470.06 344.75 466.84 344.75 468.45C344.75 472.9 341.15 476.5 336.71 476.5C311.76 476.5 244.98 476.5 220.04 476.5C215.59 476.5 211.99 472.9 211.99 468.45C211.99 466.84 211.99 470.06 211.99 468.45C211.99 464.01 215.59 460.4 220.04 460.4C244.98 460.4 311.76 460.4 336.71 460.4Z" id="cQPlEZDRi"></path><path d="M328.41 478.4C332.44 478.4 335.71 481.67 335.71 485.7C335.71 487.46 335.71 485.43 335.71 487.19C335.71 491.22 332.44 494.49 328.41 494.49C306.33 494.49 247.39 494.49 225.31 494.49C221.28 494.49 218.01 491.22 218.01 487.19C218.01 485.43 218.01 487.46 218.01 485.7C218.01 481.67 221.28 478.4 225.31 478.4C247.39 478.4 306.33 478.4 328.41 478.4Z" id="b1N41PrJTT"></path><path d="M225.52 495.49C229.73 495.49 232.35 495.49 233.41 495.49C233.41 495.49 239.14 495.49 239.14 495.49C254.06 495.49 295.94 495.49 310.86 495.49C310.86 495.49 316.59 495.49 316.59 495.49C318.01 495.49 321.56 495.49 327.23 495.49C321.01 502.9 317.12 507.54 315.57 509.39C314.4 510.78 312.68 511.59 310.86 511.59C295.94 511.59 254.06 511.59 239.14 511.59C237.35 511.59 235.67 510.69 234.68 509.2C233.46 507.37 230.41 502.8 225.52 495.49Z" id="ifGqxD04R"></path><path d="M278.34 535.16C288.39 534.85 297.79 530.16 304.07 522.32C305.22 520.89 308.09 517.31 312.67 511.59L240.67 511.59C246.21 517.86 249.67 521.78 251.05 523.35C257.94 531.16 267.94 535.49 278.34 535.16C281.51 535.07 275.06 535.27 278.34 535.16Z" id="a9CoV1NM"></path><path d="M292.42 418.8C295.37 361.2 297.21 325.2 297.95 310.8C298.34 303.11 301.99 295.95 307.99 291.11C310.94 288.73 306.11 292.63 307.99 291.11C316.25 284.45 328.29 285.46 335.32 293.4C336.61 294.85 332.81 290.56 335.32 293.4C339.19 297.76 339.97 304.06 337.28 309.23C335.98 311.74 337.94 307.96 336.99 309.79C333.16 317.17 325.54 321.8 317.23 321.8C298.88 321.8 254.96 321.8 236.01 321.8C229.29 321.8 222.83 319.17 218.02 314.47C215.94 312.44 219.08 315.51 217.47 313.94C211.88 308.48 211.36 299.67 216.27 293.59C218.39 290.97 214.54 295.73 216.27 293.59C222.31 286.1 232.99 284.3 241.16 289.38C243.55 290.86 238.65 287.82 241.6 289.65C248.8 294.13 253.35 301.84 253.79 310.31C254.54 324.77 256.42 360.94 259.42 418.8L292.42 418.8Z" id="d12lY4LwVh"></path><path d="M298.5 425.59C300.91 425.59 302.86 427.55 302.86 429.96C302.86 430.83 302.86 429.08 302.86 429.96C302.86 432.37 300.91 434.32 298.5 434.32C283.48 434.32 242.81 434.32 227.8 434.32C225.39 434.32 223.44 432.37 223.44 429.96C223.44 429.08 223.44 430.83 223.44 429.96C223.44 427.55 225.39 425.59 227.8 425.59C242.81 425.59 283.48 425.59 298.5 425.59Z" id="aI13r0JDu"></path><path d="M298.5 442.78C300.91 442.78 302.86 444.73 302.86 447.14C302.86 448.02 302.86 446.27 302.86 447.14C302.86 449.55 300.91 451.51 298.5 451.51C283.48 451.51 242.81 451.51 227.8 451.51C225.39 451.51 223.44 449.55 223.44 447.14C223.44 446.27 223.44 448.02 223.44 447.14C223.44 444.73 225.39 442.78 227.8 442.78C242.81 442.78 283.48 442.78 298.5 442.78Z" id="c6nxwBPVKJ"></path><path d="M298.5 461.71C300.91 461.71 302.86 463.67 302.86 466.08C302.86 466.95 302.86 465.2 302.86 466.08C302.86 468.49 300.91 470.44 298.5 470.44C283.48 470.44 242.81 470.44 227.8 470.44C225.39 470.44 223.44 468.49 223.44 466.08C223.44 465.2 223.44 466.95 223.44 466.08C223.44 463.67 225.39 461.71 227.8 461.71C242.81 461.71 283.48 461.71 298.5 461.71Z" id="b3abD9BicP"></path><path d="M298.5 481.52C300.91 481.52 302.86 483.47 302.86 485.88C302.86 486.75 302.86 485.01 302.86 485.88C302.86 488.29 300.91 490.25 298.5 490.25C283.48 490.25 242.81 490.25 227.8 490.25C225.39 490.25 223.44 488.29 223.44 485.88C223.44 485.01 223.44 486.75 223.44 485.88C223.44 483.47 225.39 481.52 227.8 481.52C242.81 481.52 283.48 481.52 298.5 481.52Z" id="b1l5QqVzKC"></path><path d="M272.11 4.43C270.45 4.43 269.1 5.77 269.1 7.43C269.06 23.13 268.96 67.21 268.93 82.91C268.93 84.57 270.27 85.92 271.93 85.92C273.72 85.93 276.1 85.93 277.89 85.94C279.55 85.94 280.9 84.6 280.9 82.94C280.94 67.24 281.04 23.15 281.07 7.46C281.07 5.8 279.73 4.45 278.07 4.44C276.28 4.44 273.9 4.43 272.11 4.43Z" id="b2WsYa4Ej2"></path><path d="M95.9 65.76C94.65 66.84 94.51 68.74 95.59 70C105.84 81.88 134.64 115.27 144.89 127.16C145.97 128.41 147.87 128.55 149.13 127.47C150.49 126.3 152.29 124.75 153.64 123.57C154.9 122.49 155.04 120.59 153.96 119.33C143.71 107.45 114.91 74.06 104.66 62.17C103.57 60.92 101.68 60.78 100.42 61.86C99.06 63.03 97.26 64.58 95.9 65.76Z" id="cg85C16bz"></path><path d="M19.03 261.12C19.04 262.78 20.4 264.11 22.06 264.1C37.76 263.97 81.84 263.63 97.54 263.5C99.2 263.49 100.54 262.13 100.52 260.47C100.51 258.68 100.49 256.3 100.48 254.51C100.46 252.85 99.11 251.51 97.45 251.53C81.75 251.65 37.66 252 21.97 252.12C20.31 252.14 18.97 253.49 18.98 255.15C19 256.95 19.02 259.32 19.03 261.12Z" id="c10NOKQn5F"></path><path d="M76.65 435.37C77.7 436.66 79.59 436.85 80.88 435.8C93.04 425.88 127.2 398.01 139.36 388.08C140.64 387.03 140.84 385.14 139.79 383.85C138.65 382.46 137.15 380.62 136.02 379.23C134.97 377.94 133.07 377.75 131.79 378.8C119.62 388.73 85.47 416.6 73.3 426.52C72.02 427.57 71.83 429.47 72.88 430.75C74.01 432.14 75.51 433.98 76.65 435.37Z" id="b9Q5nkyZ1"></path><path d="M458.03 69.85C459.29 70.94 459.43 72.83 458.35 74.09C448.09 85.98 419.3 119.36 409.05 131.25C407.96 132.51 406.07 132.65 404.81 131.57C403.45 130.39 401.65 128.84 400.29 127.67C399.03 126.59 398.89 124.69 399.98 123.43C410.23 111.54 439.03 78.16 449.28 66.27C450.36 65.01 452.26 64.87 453.52 65.96C454.88 67.13 456.67 68.68 458.03 69.85Z" id="b2PhobqJMQ"></path><path d="M534.9 265.21C534.89 266.87 533.54 268.21 531.88 268.19C516.18 268.07 472.09 267.72 456.39 267.6C454.73 267.59 453.4 266.23 453.41 264.57C453.43 262.78 453.45 260.4 453.46 258.61C453.47 256.95 454.83 255.61 456.49 255.62C472.19 255.75 516.27 256.09 531.97 256.22C533.63 256.23 534.96 257.59 534.95 259.25C534.94 261.04 534.92 263.42 534.9 265.21Z" id="c1DjLYiBmZ"></path><path d="M477.29 439.47C476.24 440.76 474.35 440.95 473.06 439.9C460.9 429.97 426.74 402.1 414.58 392.18C413.29 391.13 413.1 389.23 414.15 387.95C415.28 386.56 416.79 384.72 417.92 383.33C418.97 382.04 420.86 381.85 422.15 382.9C434.31 392.82 468.47 420.7 480.63 430.62C481.92 431.67 482.11 433.56 481.06 434.85C479.93 436.24 478.42 438.08 477.29 439.47Z" id="a7mCvMvgwL"></path></defs><g><g><g><use xlink:href="#g8bpvsanr" opacity="1" fill="#fff000" fill-opacity="1"></use><g><use xlink:href="#g8bpvsanr" opacity="1" fill-opacity="0" stroke="#000000" stroke-width="10" stroke-opacity="1"></use></g></g><g><use xlink:href="#b4Sa8Po02M" opacity="1" fill="#146ae4" fill-opacity="1"></use><g><use xlink:href="#b4Sa8Po02M" opacity="1" fill-opacity="0" stroke="#000000" stroke-width="5" stroke-opacity="1"></use></g></g><g><use xlink:href="#a2yZ6SqO9e" opacity="1" fill="#146ae4" fill-opacity="1"></use><g><use xlink:href="#a2yZ6SqO9e" opacity="1" fill-opacity="0" stroke="#000000" stroke-width="5" stroke-opacity="1"></use></g></g><g><use xlink:href="#cQPlEZDRi" opacity="1" fill="#146ae4" fill-opacity="1"></use><g><use xlink:href="#cQPlEZDRi" opacity="1" fill-opacity="0" stroke="#000000" stroke-width="5" stroke-opacity="1"></use></g></g><g><use xlink:href="#b1N41PrJTT" opacity="1" fill="#146ae4" fill-opacity="1"></use><g><use xlink:href="#b1N41PrJTT" opacity="1" fill-opacity="0" stroke="#000000" stroke-width="5" stroke-opacity="1"></use></g></g><g><use xlink:href="#ifGqxD04R" opacity="1" fill="#146ae4" fill-opacity="1"></use><g><use xlink:href="#ifGqxD04R" opacity="1" fill-opacity="0" stroke="#000000" stroke-width="5" stroke-opacity="1"></use></g></g><g><use xlink:href="#a9CoV1NM" opacity="1" fill="#a2a2a2" fill-opacity="1"></use><g><use xlink:href="#a9CoV1NM" opacity="1" fill-opacity="0" stroke="#000000" stroke-width="6" stroke-opacity="1"></use></g></g><g><g><use xlink:href="#d12lY4LwVh" opacity="1" fill-opacity="0" stroke="#000000" stroke-width="6" stroke-opacity="1"></use></g></g><g><use xlink:href="#aI13r0JDu" opacity="1" fill="#06c5f5" fill-opacity="1"></use></g><g><use xlink:href="#c6nxwBPVKJ" opacity="1" fill="#06c5f5" fill-opacity="1"></use></g><g><use xlink:href="#b3abD9BicP" opacity="1" fill="#06c5f5" fill-opacity="1"></use></g><g><use xlink:href="#b1l5QqVzKC" opacity="1" fill="#06c5f5" fill-opacity="1"></use></g><g><use xlink:href="#b2WsYa4Ej2" opacity="1" fill="#fff000" fill-opacity="1"></use><g><use xlink:href="#b2WsYa4Ej2" opacity="1" fill-opacity="0" stroke="#000000" stroke-width="4" stroke-opacity="1"></use></g></g><g><use xlink:href="#cg85C16bz" opacity="1" fill="#fff000" fill-opacity="1"></use><g><use xlink:href="#cg85C16bz" opacity="1" fill-opacity="0" stroke="#000000" stroke-width="4" stroke-opacity="1"></use></g></g><g><use xlink:href="#c10NOKQn5F" opacity="1" fill="#fff000" fill-opacity="1"></use><g><use xlink:href="#c10NOKQn5F" opacity="1" fill-opacity="0" stroke="#000000" stroke-width="4" stroke-opacity="1"></use></g></g><g><use xlink:href="#b9Q5nkyZ1" opacity="1" fill="#fff000" fill-opacity="1"></use><g><use xlink:href="#b9Q5nkyZ1" opacity="1" fill-opacity="0" stroke="#000000" stroke-width="4" stroke-opacity="1"></use></g></g><g><use xlink:href="#b2PhobqJMQ" opacity="1" fill="#fff000" fill-opacity="1"></use><g><use xlink:href="#b2PhobqJMQ" opacity="1" fill-opacity="0" stroke="#000000" stroke-width="4" stroke-opacity="1"></use></g></g><g><use xlink:href="#c1DjLYiBmZ" opacity="1" fill="#fff000" fill-opacity="1"></use><g><use xlink:href="#c1DjLYiBmZ" opacity="1" fill-opacity="0" stroke="#000000" stroke-width="4" stroke-opacity="1"></use></g></g><g><use xlink:href="#a7mCvMvgwL" opacity="1" fill="#fff000" fill-opacity="1"></use><g><use xlink:href="#a7mCvMvgwL" opacity="1" fill-opacity="0" stroke="#000000" stroke-width="4" stroke-opacity="1"></use></g></g></g></g></svg>