<?xml version="1.0" encoding="UTF-8" standalone="no"?>
<!DOCTYPE svg PUBLIC "-//W3C//DTD SVG 1.1//EN" "http://www.w3.org/Graphics/SVG/1.1/DTD/svg11.dtd">
<svg version="1.1" xmlns="http://www.w3.org/2000/svg" xmlns:xlink="http://www.w3.org/1999/xlink" preserveAspectRatio="xMidYMid meet" viewBox="0 0 550 550" width="550" height="550"><defs><path d="M368.43 333.66C368.97 332.93 369.32 332.48 369.45 332.29C386.5 309.6 396.48 282.38 398.14 254.05C398.44 249.04 397.64 262.64 398.15 253.93C399.11 237.61 395.83 221.33 388.65 206.66C386.01 201.28 390.84 211.13 388.65 206.66C379.98 188.95 367.38 173.46 351.82 161.36C347.5 158 356.09 164.68 351.24 160.91C337.39 150.14 321.3 142.64 304.14 138.96C298.09 137.66 306.31 139.43 300.34 138.15C282.9 134.41 264.86 134.51 247.48 138.45C242.09 139.67 252.75 137.26 247.48 138.45C229.78 142.46 213.27 150.57 199.28 162.12C194.28 166.25 199.19 162.2 193.84 166.62C180.95 177.27 170.42 190.5 162.94 205.46C160.86 209.62 165.21 200.92 162.94 205.46C156.1 219.15 152.61 234.28 152.76 249.59C152.84 257.55 152.85 258.2 152.93 266.17C153.08 281.28 157.91 295.98 166.75 308.23C171.08 314.22 175.17 319.89 180.67 327.51C180.67 327.51 195.45 349.28 195.45 349.28C198.46 354 195.36 349.15 197.11 351.89C205.93 365.72 211.65 381.31 213.86 397.57C214.22 400.18 215.11 406.71 216.53 417.15C222.75 418.04 226.63 418.59 228.18 418.81C262.48 423.71 297.31 423.59 331.58 418.45C332.74 418.28 335.63 417.84 340.26 417.15C341.13 407.59 341.67 401.62 341.89 399.23C343.47 381.91 349.03 365.18 358.15 350.36C359.52 348.13 362.95 342.56 368.43 333.66Z" id="a53bST9Ol"></path><path d="M336.24 420.17C340.68 420.17 344.29 423.77 344.29 428.21C344.29 429.82 344.29 426.6 344.29 428.21C344.29 432.66 340.68 436.26 336.24 436.26C311.9 436.26 246.91 436.26 222.57 436.26C218.13 436.26 214.52 432.66 214.52 428.21C214.52 426.6 214.52 429.82 214.52 428.21C214.52 423.77 218.13 420.17 222.57 420.17C246.91 420.17 311.9 420.17 336.24 420.17Z" id="aip1qj33l"></path><path d="M337.24 440.17C341.68 440.17 345.29 443.77 345.29 448.21C345.29 449.82 345.29 446.6 345.29 448.21C345.29 452.66 341.68 456.26 337.24 456.26C312.3 456.26 245.51 456.26 220.57 456.26C216.13 456.26 212.52 452.66 212.52 448.21C212.52 446.6 212.52 449.82 212.52 448.21C212.52 443.77 216.13 440.17 220.57 440.17C245.51 440.17 312.3 440.17 337.24 440.17Z" id="a7dZQp2UK"></path><path d="M337.24 460.17C341.68 460.17 345.29 463.77 345.29 468.21C345.29 469.82 345.29 466.6 345.29 468.21C345.29 472.66 341.68 476.26 337.24 476.26C312.3 476.26 245.51 476.26 220.57 476.26C216.13 476.26 212.52 472.66 212.52 468.21C212.52 466.6 212.52 469.82 212.52 468.21C212.52 463.77 216.13 460.17 220.57 460.17C245.51 460.17 312.3 460.17 337.24 460.17Z" id="ekLU3e9dQ"></path><path d="M328.94 478.16C332.97 478.16 336.24 481.43 336.24 485.46C336.24 487.22 336.24 485.2 336.24 486.96C336.24 490.99 332.97 494.26 328.94 494.26C306.86 494.26 247.92 494.26 225.85 494.26C221.81 494.26 218.55 490.99 218.55 486.96C218.55 485.2 218.55 487.22 218.55 485.46C218.55 481.43 221.81 478.16 225.85 478.16C247.92 478.16 306.86 478.16 328.94 478.16Z" id="e301xyRNi"></path><path d="M226.06 495.26C230.26 495.26 232.89 495.26 233.94 495.26C233.94 495.26 239.67 495.26 239.67 495.26C254.59 495.26 296.48 495.26 311.39 495.26C311.39 495.26 317.13 495.26 317.13 495.26C318.55 495.26 322.09 495.26 327.76 495.26C321.54 502.67 317.66 507.3 316.1 509.15C314.94 510.55 313.21 511.35 311.39 511.35C296.48 511.35 254.59 511.35 239.67 511.35C237.88 511.35 236.21 510.46 235.21 508.97C233.99 507.14 230.94 502.57 226.06 495.26Z" id="c4sUyrclto"></path><path d="M278.88 534.93C288.92 534.62 298.32 529.92 304.61 522.08C305.75 520.65 308.62 517.07 313.21 511.35L241.21 511.35C246.74 517.62 250.2 521.55 251.59 523.12C258.47 530.92 268.48 535.25 278.88 534.93C282.04 534.83 275.59 535.03 278.88 534.93Z" id="azYVu4ALK"></path><path d="M292.96 418.56C295.9 360.96 297.75 324.96 298.48 310.56C298.88 302.87 302.53 295.71 308.53 290.88C311.48 288.5 306.64 292.4 308.53 290.88C316.78 284.22 328.82 285.22 335.86 293.16C337.14 294.61 333.34 290.33 335.86 293.16C339.72 297.53 340.5 303.82 337.82 308.99C336.51 311.51 338.47 307.73 337.52 309.55C333.69 316.93 326.07 321.56 317.76 321.56C299.42 321.56 255.49 321.56 236.54 321.56C229.82 321.56 223.36 318.93 218.55 314.24C216.47 312.2 219.62 315.27 218.01 313.7C212.42 308.25 211.89 299.43 216.8 293.35C218.92 290.73 215.07 295.49 216.8 293.35C222.85 285.86 233.53 284.06 241.7 289.14C244.08 290.63 239.18 287.58 242.13 289.41C249.33 293.89 253.88 301.61 254.32 310.07C255.07 324.54 256.95 360.7 259.96 418.56L292.96 418.56Z" id="ajc7NsQHL"></path><path d="M299.03 425.36C301.44 425.36 303.39 427.31 303.39 429.72C303.39 430.59 303.39 428.85 303.39 429.72C303.39 432.13 301.44 434.08 299.03 434.08C284.02 434.08 243.35 434.08 228.34 434.08C225.93 434.08 223.97 432.13 223.97 429.72C223.97 428.85 223.97 430.59 223.97 429.72C223.97 427.31 225.93 425.36 228.34 425.36C243.35 425.36 284.02 425.36 299.03 425.36Z" id="d28ceu5rIe"></path><path d="M299.03 442.54C301.44 442.54 303.39 444.5 303.39 446.91C303.39 447.78 303.39 446.03 303.39 446.91C303.39 449.32 301.44 451.27 299.03 451.27C284.02 451.27 243.35 451.27 228.34 451.27C225.93 451.27 223.97 449.32 223.97 446.91C223.97 446.03 223.97 447.78 223.97 446.91C223.97 444.5 225.93 442.54 228.34 442.54C243.35 442.54 284.02 442.54 299.03 442.54Z" id="a15c9Kn9id"></path><path d="M299.03 461.48C301.44 461.48 303.39 463.43 303.39 465.84C303.39 466.71 303.39 464.97 303.39 465.84C303.39 468.25 301.44 470.2 299.03 470.2C284.02 470.2 243.35 470.2 228.34 470.2C225.93 470.2 223.97 468.25 223.97 465.84C223.97 464.97 223.97 466.71 223.97 465.84C223.97 463.43 225.93 461.48 228.34 461.48C243.35 461.48 284.02 461.48 299.03 461.48Z" id="a2ge5qxE6"></path><path d="M299.03 481.28C301.44 481.28 303.39 483.24 303.39 485.65C303.39 486.52 303.39 484.77 303.39 485.65C303.39 488.06 301.44 490.01 299.03 490.01C284.02 490.01 243.35 490.01 228.34 490.01C225.93 490.01 223.97 488.06 223.97 485.65C223.97 484.77 223.97 486.52 223.97 485.65C223.97 483.24 225.93 481.28 228.34 481.28C243.35 481.28 284.02 481.28 299.03 481.28Z" id="k8mubo9uX"></path></defs><g><g><g><g><use xlink:href="#a53bST9Ol" opacity="1" fill-opacity="0" stroke="#000000" stroke-width="10" stroke-opacity="1"></use></g></g><g><use xlink:href="#aip1qj33l" opacity="1" fill="#146ae4" fill-opacity="1"></use><g><use xlink:href="#aip1qj33l" opacity="1" fill-opacity="0" stroke="#000000" stroke-width="5" stroke-opacity="1"></use></g></g><g><use xlink:href="#a7dZQp2UK" opacity="1" fill="#146ae4" fill-opacity="1"></use><g><use xlink:href="#a7dZQp2UK" opacity="1" fill-opacity="0" stroke="#000000" stroke-width="5" stroke-opacity="1"></use></g></g><g><use xlink:href="#ekLU3e9dQ" opacity="1" fill="#146ae4" fill-opacity="1"></use><g><use xlink:href="#ekLU3e9dQ" opacity="1" fill-opacity="0" stroke="#000000" stroke-width="5" stroke-opacity="1"></use></g></g><g><use xlink:href="#e301xyRNi" opacity="1" fill="#146ae4" fill-opacity="1"></use><g><use xlink:href="#e301xyRNi" opacity="1" fill-opacity="0" stroke="#000000" stroke-width="5" stroke-opacity="1"></use></g></g><g><use xlink:href="#c4sUyrclto" opacity="1" fill="#146ae4" fill-opacity="1"></use><g><use xlink:href="#c4sUyrclto" opacity="1" fill-opacity="0" stroke="#000000" stroke-width="5" stroke-opacity="1"></use></g></g><g><use xlink:href="#azYVu4ALK" opacity="1" fill="#a2a2a2" fill-opacity="1"></use><g><use xlink:href="#azYVu4ALK" opacity="1" fill-opacity="0" stroke="#000000" stroke-width="6" stroke-opacity="1"></use></g></g><g><g><use xlink:href="#ajc7NsQHL" opacity="1" fill-opacity="0" stroke="#000000" stroke-width="6" stroke-opacity="1"></use></g></g><g><use xlink:href="#d28ceu5rIe" opacity="1" fill="#06c5f5" fill-opacity="1"></use></g><g><use xlink:href="#a15c9Kn9id" opacity="1" fill="#06c5f5" fill-opacity="1"></use></g><g><use xlink:href="#a2ge5qxE6" opacity="1" fill="#06c5f5" fill-opacity="1"></use></g><g><use xlink:href="#k8mubo9uX" opacity="1" fill="#06c5f5" fill-opacity="1"></use></g></g></g></svg>