<?xml version="1.0" encoding="UTF-8" standalone="no"?>
<!DOCTYPE svg PUBLIC "-//W3C//DTD SVG 1.1//EN" "http://www.w3.org/Graphics/SVG/1.1/DTD/svg11.dtd">
<svg version="1.1" xmlns="http://www.w3.org/2000/svg" xmlns:xlink="http://www.w3.org/1999/xlink" preserveAspectRatio="xMidYMid meet" viewBox="0 0 550 550" width="550" height="550"><defs><path d="M472.25 283.19C472.25 392.05 383.86 480.43 275 480.43C166.14 480.43 77.75 392.05 77.75 283.19C77.75 174.32 166.14 85.94 275 85.94C383.86 85.94 472.25 174.32 472.25 283.19Z" id="ci9mXEEmQ"></path><path d="M224.27 106.56C213.77 116.78 200.86 124.18 186.73 128.08C177.29 130.69 177.1 130.74 169.31 132.89C149.73 138.29 129.14 138.96 109.25 134.83C100.16 132.94 79.18 128.59 64.1 125.46C63.98 125.44 63.96 125.29 64.05 125.23C71.33 120.55 77.67 116.47 81.14 114.24C93.88 106.05 104.88 95.42 113.51 82.97C117.18 77.66 113.32 83.24 116.53 78.59C126.48 64.22 140.83 53.46 157.41 47.93C163.3 45.97 154.49 48.91 160.15 47.02C177.52 41.23 196.26 40.96 213.8 46.25C218.89 47.78 231.61 51.62 251.97 57.75C251.44 60.62 251.11 62.41 250.98 63.13C248.44 76.95 241.66 89.64 231.58 99.45C226.92 103.99 228.83 102.13 224.27 106.56Z" id="c7gGlxfnq"></path><path d="M312.38 131.88C309.93 126.04 309.14 119.64 310.1 113.38C310.65 109.85 311.77 102.55 312.55 97.45C312.64 96.86 311.95 96.46 311.48 96.84C307.71 99.92 305.33 101.87 303.46 103.4C296.27 109.26 288.23 113.99 279.61 117.42C277.46 118.27 281.64 116.61 278.89 117.7C272.31 120.32 265.21 121.34 258.16 120.69C250.86 120.02 235.6 118.61 227.28 117.84C225.96 117.72 225.39 119.48 226.55 120.14C231.69 123.11 235.3 125.2 238.72 127.17C247.51 132.24 254.38 140.08 258.26 149.47C258.96 151.15 254.62 140.66 255.21 142.07C259.51 152.48 261.57 163.68 261.25 174.93C261.16 177.82 261.14 178.54 261 183.71C260.95 185.27 262.99 185.88 263.81 184.56C266.96 179.46 270.05 174.46 272.35 170.74C277.05 163.14 283.92 157.13 292.08 153.5C293.81 152.73 291.2 153.89 294.11 152.59C298.39 150.69 303.19 150.33 307.7 151.59C312.84 153.02 324.79 156.36 330.8 158.04C331.56 158.25 332.12 157.34 331.59 156.76C328.34 153.19 326.48 151.14 324.74 149.24C318.52 142.4 313.5 134.54 309.92 126.01C309.66 125.4 312.97 133.28 312.38 131.88Z" id="f2GKlBfYR"></path><path d="M383.8 302.38C383.8 304.52 381.26 306.26 378.13 306.26C374.99 306.26 372.45 304.52 372.45 302.38C372.45 300.24 374.99 298.5 378.13 298.5C381.26 298.5 383.8 300.24 383.8 302.38Z" id="b9MFcL4a3"></path><path d="M230.8 40.55C241.63 55.57 248.4 64.96 251.11 68.71C258.43 78.85 261.88 91.28 260.83 103.74C260.58 106.78 259.94 114.39 258.92 126.56C258.92 126.56 258.92 126.56 258.92 126.56C271.24 132.49 285.64 132.24 297.74 125.88C297.77 125.87 297.83 125.83 297.93 125.78L281.07 78.45C259.76 48.1 246.45 29.12 241.12 21.54C238.65 18.02 234.25 16.42 230.1 17.54C225.33 18.83 217.72 20.88 212.9 22.18C210.3 22.88 209.72 26.32 211.96 27.83C214.47 29.52 220.75 33.77 230.8 40.55Z" id="adZMMxjhM"></path><path d="M351.3 275C351.3 277.14 348.76 278.88 345.63 278.88C342.5 278.88 339.96 277.14 339.96 275C339.96 272.86 342.5 271.12 345.63 271.12C348.76 271.12 351.3 272.86 351.3 275Z" id="awR3HrvtQ"></path><path d="M346.5 337.69C346.5 339.83 343.96 341.57 340.83 341.57C337.7 341.57 335.16 339.83 335.16 337.69C335.16 335.55 337.7 333.81 340.83 333.81C343.96 333.81 346.5 335.55 346.5 337.69Z" id="etdBxGSVT"></path><path d="M406.66 324.75C406.66 326.89 404.12 328.63 400.99 328.63C397.85 328.63 395.31 326.89 395.31 324.75C395.31 322.61 397.85 320.88 400.99 320.88C404.12 320.88 406.66 322.61 406.66 324.75Z" id="bgOsGRDJu"></path><path d="M403.91 367.44C403.91 369.58 401.36 371.32 398.23 371.32C395.1 371.32 392.56 369.58 392.56 367.44C392.56 365.3 395.1 363.56 398.23 363.56C401.36 363.56 403.91 365.3 403.91 367.44Z" id="a7Nom8ezK"></path><path d="M441.03 339.87C441.03 342.01 438.49 343.75 435.36 343.75C432.23 343.75 429.69 342.01 429.69 339.87C429.69 337.73 432.23 335.99 435.36 335.99C438.49 335.99 441.03 337.73 441.03 339.87Z" id="b3wXXhfvoY"></path><path d="M372.28 357.06C372.28 359.2 369.74 360.94 366.61 360.94C363.48 360.94 360.94 359.2 360.94 357.06C360.94 354.92 363.48 353.18 366.61 353.18C369.74 353.18 372.28 354.92 372.28 357.06Z" id="ekxwjDDuK"></path><path d="M347.7 395.31C347.7 397.45 345.16 399.19 342.03 399.19C338.9 399.19 336.36 397.45 336.36 395.31C336.36 393.17 338.9 391.43 342.03 391.43C345.16 391.43 347.7 393.17 347.7 395.31Z" id="a1DRRzGImV"></path><path d="M415.25 403.91C415.25 406.05 412.71 407.78 409.58 407.78C406.45 407.78 403.91 406.05 403.91 403.91C403.91 401.77 406.45 400.03 409.58 400.03C412.71 400.03 415.25 401.77 415.25 403.91Z" id="e1z3Mbcdgk"></path><path d="M365.39 427.6C365.39 429.74 362.85 431.47 359.72 431.47C356.59 431.47 354.05 429.74 354.05 427.6C354.05 425.46 356.59 423.72 359.72 423.72C362.85 423.72 365.39 425.46 365.39 427.6Z" id="gc3mgPiCU"></path><path d="M423.85 288.31C423.85 290.45 421.3 292.19 418.17 292.19C415.04 292.19 412.5 290.45 412.5 288.31C412.5 286.17 415.04 284.43 418.17 284.43C421.3 284.43 423.85 286.17 423.85 288.31Z" id="d1xPaRENEW"></path><path d="M178.68 401.77C165.21 386.65 156.79 377.2 153.43 373.42C142.81 361.51 134.91 347.44 130.26 332.18C129.34 329.14 127.02 321.54 123.31 309.38" id="b1jcNA6Jaa"></path><path d="M134.93 274.53L128.74 238.2C128.87 231.98 128.96 228.09 128.99 226.53C129.31 211.95 137.24 198.59 149.89 191.33C150.99 190.7 153.74 189.12 158.13 186.6L186.19 174.81C180.69 180.28 177.25 183.7 175.88 185.07C158.8 202.05 146.84 223.49 141.37 246.95C140.51 250.63 138.37 259.82 134.93 274.53Z" id="gSzPcA9Ra"></path></defs><g><g><g><use xlink:href="#ci9mXEEmQ" opacity="1" fill="#ffffff" fill-opacity="1"></use><g><use xlink:href="#ci9mXEEmQ" opacity="1" fill-opacity="0" stroke="#737373" stroke-width="6" stroke-opacity="1"></use></g></g><g><use xlink:href="#c7gGlxfnq" opacity="1" fill="#ffffff" fill-opacity="1"></use><g><use xlink:href="#c7gGlxfnq" opacity="1" fill-opacity="0" stroke="#737373" stroke-width="6" stroke-opacity="1"></use></g></g><g><use xlink:href="#f2GKlBfYR" opacity="1" fill="#ffffff" fill-opacity="1"></use><g><use xlink:href="#f2GKlBfYR" opacity="1" fill-opacity="0" stroke="#737373" stroke-width="6" stroke-opacity="1"></use></g></g><g><use xlink:href="#b9MFcL4a3" opacity="1" fill="#737373" fill-opacity="1"></use></g><g><use xlink:href="#adZMMxjhM" opacity="1" fill="#ffffff" fill-opacity="1"></use><g><use xlink:href="#adZMMxjhM" opacity="1" fill-opacity="0" stroke="#737373" stroke-width="6" stroke-opacity="1"></use></g></g><g><g><use xlink:href="#awR3HrvtQ" opacity="1" fill="#737373" fill-opacity="1"></use></g><g><use xlink:href="#etdBxGSVT" opacity="1" fill="#737373" fill-opacity="1"></use></g><g><use xlink:href="#bgOsGRDJu" opacity="1" fill="#737373" fill-opacity="1"></use></g><g><use xlink:href="#a7Nom8ezK" opacity="1" fill="#737373" fill-opacity="1"></use></g><g><use xlink:href="#b3wXXhfvoY" opacity="1" fill="#737373" fill-opacity="1"></use></g><g><use xlink:href="#ekxwjDDuK" opacity="1" fill="#737373" fill-opacity="1"></use></g><g><use xlink:href="#a1DRRzGImV" opacity="1" fill="#737373" fill-opacity="1"></use></g><g><use xlink:href="#e1z3Mbcdgk" opacity="1" fill="#737373" fill-opacity="1"></use></g><g><use xlink:href="#gc3mgPiCU" opacity="1" fill="#737373" fill-opacity="1"></use></g><g><use xlink:href="#d1xPaRENEW" opacity="1" fill="#737373" fill-opacity="1"></use></g></g><g><g><use xlink:href="#b1jcNA6Jaa" opacity="1" fill-opacity="0" stroke="#737373" stroke-width="6" stroke-opacity="1"></use></g></g><g><use xlink:href="#gSzPcA9Ra" opacity="1" fill="#ffffff" fill-opacity="1"></use></g></g></g></svg>