<?xml version="1.0" encoding="UTF-8" standalone="no"?>
<!DOCTYPE svg PUBLIC "-//W3C//DTD SVG 1.1//EN" "http://www.w3.org/Graphics/SVG/1.1/DTD/svg11.dtd">
<svg version="1.1" xmlns="http://www.w3.org/2000/svg" xmlns:xlink="http://www.w3.org/1999/xlink" preserveAspectRatio="xMidYMid meet" viewBox="0 0 100 100" width="100" height="100"><defs><path d="M65.63 14.08L65.63 22.33L75.8 22.33L75.64 86.03L24.48 86.03L24.32 13.91L65.63 14.08Z" id="c6pxSdaac9"></path><path d="M65.83 14.05C65.75 13.98 65.63 14.04 65.63 14.15C65.63 15.24 65.63 17.96 65.63 22.31C70.97 22.25 74.32 22.22 75.66 22.21C75.75 22.21 75.79 22.09 75.72 22.04C73.7 20.4 67.85 15.68 65.83 14.05Z" id="a3tlfDJUD5"></path><path d="M65.63 32.49L34.38 32.49" id="a1ijwUN17q"></path><path d="M65.63 70.7L34.38 70.7" id="e45TDli5jB"></path><path d="M65.63 38.85L34.38 38.85" id="dimhS1XDe"></path><path d="M65.63 64.33L34.38 64.33" id="d2YNMT8JZ"></path><path d="M65.63 45.22L34.38 45.22" id="bqChovLYq"></path><path d="M65.63 57.97L34.38 57.97" id="e2glOUVbMl"></path><path d="M65.63 51.61L34.38 51.61" id="k2t8ylpWZV"></path></defs><g><g><g><use xlink:href="#c6pxSdaac9" opacity="1" fill="#ffffff" fill-opacity="1"></use><g><use xlink:href="#c6pxSdaac9" opacity="1" fill-opacity="0" stroke="#35262d" stroke-width="1" stroke-opacity="1"></use></g></g><g><use xlink:href="#a3tlfDJUD5" opacity="1" fill="#ffffff" fill-opacity="1"></use><g><use xlink:href="#a3tlfDJUD5" opacity="1" fill-opacity="0" stroke="#35262d" stroke-width="1" stroke-opacity="1"></use></g></g><g><g><use xlink:href="#a1ijwUN17q" opacity="1" fill-opacity="0" stroke="#35262d" stroke-width="1" stroke-opacity="1"></use></g></g><g><g><use xlink:href="#e45TDli5jB" opacity="1" fill-opacity="0" stroke="#35262d" stroke-width="1" stroke-opacity="1"></use></g></g><g><g><use xlink:href="#dimhS1XDe" opacity="1" fill-opacity="0" stroke="#35262d" stroke-width="1" stroke-opacity="1"></use></g></g><g><g><use xlink:href="#d2YNMT8JZ" opacity="1" fill-opacity="0" stroke="#35262d" stroke-width="1" stroke-opacity="1"></use></g></g><g><use xlink:href="#bqChovLYq" opacity="1" fill="#ffffff" fill-opacity="1"></use><g><use xlink:href="#bqChovLYq" opacity="1" fill-opacity="0" stroke="#35262d" stroke-width="1" stroke-opacity="1"></use></g></g><g><g><use xlink:href="#e2glOUVbMl" opacity="1" fill-opacity="0" stroke="#35262d" stroke-width="1" stroke-opacity="1"></use></g></g><g><use xlink:href="#k2t8ylpWZV" opacity="1" fill="#ffffff" fill-opacity="1"></use><g><use xlink:href="#k2t8ylpWZV" opacity="1" fill-opacity="0" stroke="#35262d" stroke-width="1" stroke-opacity="1"></use></g></g></g></g></svg>