<?xml version="1.0" encoding="UTF-8" standalone="no"?>
<!DOCTYPE svg PUBLIC "-//W3C//DTD SVG 1.1//EN" "http://www.w3.org/Graphics/SVG/1.1/DTD/svg11.dtd">
<svg version="1.1" xmlns="http://www.w3.org/2000/svg" xmlns:xlink="http://www.w3.org/1999/xlink" preserveAspectRatio="xMidYMid meet" viewBox="0 0 860 200" width="860" height="200"><defs><path d="M0 0L26.81 0L26.81 198.54L0 198.54L0 0Z" id="cJcmteft1"></path><path d="M26.42 0L53.24 0L53.24 198.54L26.42 198.54L26.42 0Z" id="a22560gUOx"></path><path d="M48.3 0L75.11 0L75.11 198.54L48.3 198.54L48.3 0Z" id="jzguuGV5B"></path><path d="M70.17 0L96.99 0L96.99 198.54L70.17 198.54L70.17 0Z" id="bM4FrIa7N"></path><path d="M92.05 0L118.86 0L118.86 198.54L92.05 198.54L92.05 0Z" id="d2SkXD26kF"></path><path d="M118.3 0L145.12 0L145.12 198.54L118.3 198.54L118.3 0Z" id="d1R68N3Bju"></path><path d="M289.31 0L262.49 0L262.49 198.54L289.31 198.54L289.31 0Z" id="e4pD4LJzmJ"></path><path d="M262.89 0L236.07 0L236.07 198.54L262.89 198.54L262.89 0Z" id="a5X1mpqgQ"></path><path d="M241.01 0L214.2 0L214.2 198.54L241.01 198.54L241.01 0Z" id="c2ZOdH5mM"></path><path d="M219.14 0L192.32 0L192.32 198.54L219.14 198.54L219.14 0Z" id="dxzlrxXBX"></path><path d="M197.26 0L170.45 0L170.45 198.54L197.26 198.54L197.26 0Z" id="akgRcC32"></path><path d="M171.01 0L144.19 0L144.19 198.54L171.01 198.54L171.01 0Z" id="cyCL3zkIK"></path><path d="M284.38 0L311.19 0L311.19 198.54L284.38 198.54L284.38 0Z" id="d2aqsYLn7Y"></path><path d="M310.8 0L337.61 0L337.61 198.54L310.8 198.54L310.8 0Z" id="d5rD3rk14T"></path><path d="M332.67 0L359.49 0L359.49 198.54L332.67 198.54L332.67 0Z" id="a1aESIMvjb"></path><path d="M354.55 0L381.36 0L381.36 198.54L354.55 198.54L354.55 0Z" id="abIwDLZfd"></path><path d="M376.42 0L403.24 0L403.24 198.54L376.42 198.54L376.42 0Z" id="ckXK3nyhH"></path><path d="M402.68 0L429.49 0L429.49 198.54L402.68 198.54L402.68 0Z" id="e2U8HgVpW9"></path><path d="M573.68 0L546.87 0L546.87 198.54L573.68 198.54L573.68 0Z" id="bu77K9XmH"></path><path d="M547.26 0L520.45 0L520.45 198.54L547.26 198.54L547.26 0Z" id="gjH51EsHx"></path><path d="M525.39 0L498.57 0L498.57 198.54L525.39 198.54L525.39 0Z" id="a1Ubln7LqJ"></path><path d="M503.51 0L476.7 0L476.7 198.54L503.51 198.54L503.51 0Z" id="b6BqiBJdWD"></path><path d="M481.64 0L454.82 0L454.82 198.54L481.64 198.54L481.64 0Z" id="bMe0eYZb4"></path><path d="M455.38 0L428.57 0L428.57 198.54L455.38 198.54L455.38 0Z" id="b4uklnQJX"></path><path d="M568.75 0L595.56 0L595.56 198.54L568.75 198.54L568.75 0Z" id="eaRO7MVZm"></path><path d="M595.17 0L621.99 0L621.99 198.54L595.17 198.54L595.17 0Z" id="bkhwY6rMw"></path><path d="M617.05 0L643.86 0L643.86 198.54L617.05 198.54L617.05 0Z" id="cnSxNkqbr"></path><path d="M638.92 0L665.74 0L665.74 198.54L638.92 198.54L638.92 0Z" id="aFOs5aNzT"></path><path d="M660.8 0L687.61 0L687.61 198.54L660.8 198.54L660.8 0Z" id="a42kL9mXSl"></path><path d="M687.05 0L713.87 0L713.87 198.54L687.05 198.54L687.05 0Z" id="dopbtsfgU"></path><path d="M858.06 0L831.24 0L831.24 198.54L858.06 198.54L858.06 0Z" id="d23vNtKeB"></path><path d="M831.64 0L804.82 0L804.82 198.54L831.64 198.54L831.64 0Z" id="b1HgyJuQ8H"></path><path d="M809.76 0L782.95 0L782.95 198.54L809.76 198.54L809.76 0Z" id="h6pTTu8iS"></path><path d="M787.89 0L761.07 0L761.07 198.54L787.89 198.54L787.89 0Z" id="e1L7ObxNgC"></path><path d="M766.01 0L739.2 0L739.2 198.54L766.01 198.54L766.01 0Z" id="cmI87ZnSs"></path><path d="M739.76 0L712.94 0L712.94 198.54L739.76 198.54L739.76 0Z" id="b1GsCD8ens"></path></defs><g><g><g><g><use xlink:href="#cJcmteft1" opacity="1" fill="#a8ddb5" fill-opacity="1"></use></g><g><use xlink:href="#a22560gUOx" opacity="1" fill="#7bccc4" fill-opacity="1"></use></g><g><use xlink:href="#jzguuGV5B" opacity="1" fill="#4eb3d3" fill-opacity="1"></use></g><g><use xlink:href="#bM4FrIa7N" opacity="1" fill="#2b8cbe" fill-opacity="1"></use></g><g><use xlink:href="#d2SkXD26kF" opacity="1" fill="#0868ac" fill-opacity="1"></use></g><g><use xlink:href="#d1R68N3Bju" opacity="1" fill="#084081" fill-opacity="1"></use></g></g><g><g><use xlink:href="#e4pD4LJzmJ" opacity="1" fill="#a8ddb5" fill-opacity="1"></use></g><g><use xlink:href="#a5X1mpqgQ" opacity="1" fill="#7bccc4" fill-opacity="1"></use></g><g><use xlink:href="#c2ZOdH5mM" opacity="1" fill="#4eb3d3" fill-opacity="1"></use></g><g><use xlink:href="#dxzlrxXBX" opacity="1" fill="#2b8cbe" fill-opacity="1"></use></g><g><use xlink:href="#akgRcC32" opacity="1" fill="#0868ac" fill-opacity="1"></use></g><g><use xlink:href="#cyCL3zkIK" opacity="1" fill="#084081" fill-opacity="1"></use></g></g><g><g><use xlink:href="#d2aqsYLn7Y" opacity="1" fill="#a8ddb5" fill-opacity="1"></use></g><g><use xlink:href="#d5rD3rk14T" opacity="1" fill="#7bccc4" fill-opacity="1"></use></g><g><use xlink:href="#a1aESIMvjb" opacity="1" fill="#4eb3d3" fill-opacity="1"></use></g><g><use xlink:href="#abIwDLZfd" opacity="1" fill="#2b8cbe" fill-opacity="1"></use></g><g><use xlink:href="#ckXK3nyhH" opacity="1" fill="#0868ac" fill-opacity="1"></use></g><g><use xlink:href="#e2U8HgVpW9" opacity="1" fill="#084081" fill-opacity="1"></use></g></g><g><g><use xlink:href="#bu77K9XmH" opacity="1" fill="#a8ddb5" fill-opacity="1"></use></g><g><use xlink:href="#gjH51EsHx" opacity="1" fill="#7bccc4" fill-opacity="1"></use></g><g><use xlink:href="#a1Ubln7LqJ" opacity="1" fill="#4eb3d3" fill-opacity="1"></use></g><g><use xlink:href="#b6BqiBJdWD" opacity="1" fill="#2b8cbe" fill-opacity="1"></use></g><g><use xlink:href="#bMe0eYZb4" opacity="1" fill="#0868ac" fill-opacity="1"></use></g><g><use xlink:href="#b4uklnQJX" opacity="1" fill="#084081" fill-opacity="1"></use></g></g><g><g><use xlink:href="#eaRO7MVZm" opacity="1" fill="#a8ddb5" fill-opacity="1"></use></g><g><use xlink:href="#bkhwY6rMw" opacity="1" fill="#7bccc4" fill-opacity="1"></use></g><g><use xlink:href="#cnSxNkqbr" opacity="1" fill="#4eb3d3" fill-opacity="1"></use></g><g><use xlink:href="#aFOs5aNzT" opacity="1" fill="#2b8cbe" fill-opacity="1"></use></g><g><use xlink:href="#a42kL9mXSl" opacity="1" fill="#0868ac" fill-opacity="1"></use></g><g><use xlink:href="#dopbtsfgU" opacity="1" fill="#084081" fill-opacity="1"></use></g></g><g><g><use xlink:href="#d23vNtKeB" opacity="1" fill="#a8ddb5" fill-opacity="1"></use></g><g><use xlink:href="#b1HgyJuQ8H" opacity="1" fill="#7bccc4" fill-opacity="1"></use></g><g><use xlink:href="#h6pTTu8iS" opacity="1" fill="#4eb3d3" fill-opacity="1"></use></g><g><use xlink:href="#e1L7ObxNgC" opacity="1" fill="#2b8cbe" fill-opacity="1"></use></g><g><use xlink:href="#cmI87ZnSs" opacity="1" fill="#0868ac" fill-opacity="1"></use></g><g><use xlink:href="#b1GsCD8ens" opacity="1" fill="#084081" fill-opacity="1"></use></g></g></g></g></svg>