<?xml version="1.0" encoding="UTF-8" standalone="no"?>
<!DOCTYPE svg PUBLIC "-//W3C//DTD SVG 1.1//EN" "http://www.w3.org/Graphics/SVG/1.1/DTD/svg11.dtd">
<svg version="1.1" xmlns="http://www.w3.org/2000/svg" xmlns:xlink="http://www.w3.org/1999/xlink" preserveAspectRatio="xMidYMid meet" viewBox="0 0 100 100" width="100" height="100"><defs><path d="M95.01 50C95.01 74.84 74.84 95.01 50 95.01C25.16 95.01 4.99 74.84 4.99 50C4.99 25.16 25.16 4.99 50 4.99C74.84 4.99 95.01 25.16 95.01 50Z" id="c3JmFtfozK"></path><path d="M34.9 33.98C35.63 34.04 36.36 33.93 37.03 33.65C38.45 33.05 39.54 32.59 40.42 32.22C42.91 31.18 45.48 30.33 48.1 29.69C49.84 29.26 47.77 29.77 48.68 29.55C53.83 28.28 59.27 29.32 63.6 32.39C63.72 32.47 64 32.67 64.46 33C65.33 33.9 65.88 34.47 66.1 34.69C68.61 37.3 70.4 40.52 71.27 44.04C71.33 44.29 70.94 42.7 71.19 43.71C71.45 44.76 71.61 45.84 71.68 46.93C71.74 48.08 71.63 46.12 71.64 46.32C71.88 50.47 70.84 54.58 68.68 58.12C68.54 58.35 68.19 58.92 67.63 59.82C67.55 59.93 67.49 59.99 67.47 60.02C64.29 63.79 60.07 66.53 55.35 67.92C55.35 67.92 57.24 67.36 55.9 67.75C55.53 67.86 55.15 67.94 54.77 67.98C53.38 68.15 55.3 67.92 55.29 67.92C50.46 68.49 45.59 67.3 41.57 64.55C40.99 64.16 39.55 63.17 37.23 61.6L43.59 56.07L25.82 50.63L25.68 70.75L31.54 65.36C36.41 68.12 39.45 69.84 40.66 70.53C44.93 72.95 49.84 74.01 54.73 73.56C54.99 73.54 53.02 73.72 54.48 73.59C55.51 73.49 56.53 73.31 57.53 73.03C59.04 72.61 56.72 73.25 56.89 73.21C62.23 71.73 67.05 68.76 70.77 64.66C71.07 64.33 70.14 65.35 71.41 63.95C71.98 63.32 72.51 62.65 72.98 61.94C73.98 60.46 72.96 61.97 73.14 61.71C76.24 57.1 77.51 51.51 76.73 46.02C76.69 45.73 76.59 45.02 76.42 43.88C76.04 42.76 75.8 42.05 75.7 41.77C74.22 37.44 71.66 33.57 68.25 30.52C68.04 30.34 68.94 31.14 67.82 30.13C67.41 29.77 66.97 29.44 66.51 29.15C64.49 27.88 64.81 28.08 64.21 27.7C59.24 24.57 53.23 23.55 47.5 24.86C46.55 25.08 49.29 24.45 47.5 24.86C44.35 25.59 41.27 26.6 38.3 27.9C37.77 28.13 36.43 28.72 34.28 29.66C33.92 30.01 33.7 30.22 33.6 30.31C32.28 31.58 33.07 33.82 34.9 33.98C35.12 34 33.96 33.9 34.9 33.98Z" id="b8DomrdAJ"></path></defs><g><g><g><g><use xlink:href="#c3JmFtfozK" opacity="1" fill-opacity="0" stroke="#ccffff" stroke-width="6" stroke-opacity="1"></use></g></g><g><use xlink:href="#b8DomrdAJ" opacity="1" fill="#ccffff" fill-opacity="1"></use><g><use xlink:href="#b8DomrdAJ" opacity="1" fill-opacity="0" stroke="#ccffff" stroke-width="1" stroke-opacity="1"></use></g></g></g></g></svg>